<svg width="60" height="60" viewBox="0 0 60 60" fill="none" xmlns="http://www.w3.org/2000/svg">
<path d="M11.9564 6.31946C8.84368 6.31946 6.32031 8.84283 6.32031 11.9556C6.32031 14.6987 8.28011 16.9842 10.876 17.4882L10.876 44.125H13.126L13.126 17.4702C15.3002 17.0113 17.0123 15.2992 17.4711 13.125L44.1262 13.125V10.875L17.4891 10.875C16.985 8.27919 14.6995 6.31946 11.9564 6.31946ZM8.57031 11.9556C8.57031 10.0855 10.0863 8.56946 11.9564 8.56946C13.8265 8.56946 15.3425 10.0855 15.3425 11.9556C15.3425 13.8256 13.8265 15.3417 11.9564 15.3417C10.0863 15.3417 8.57031 13.8256 8.57031 11.9556Z" fill="#0D0B10"/>
<path d="M46.876 42.5297C44.7016 42.9884 42.9892 44.7006 42.5304 46.875L15.8762 46.875V49.125L42.5124 49.125C43.0165 51.7208 45.3019 53.6805 48.045 53.6805C51.1577 53.6805 53.6812 51.1571 53.6812 48.0444C53.6812 45.3014 51.7216 43.016 49.126 42.5119V15.875H46.876V42.5297ZM44.6589 48.0444C44.6589 46.1744 46.175 44.6583 48.045 44.6583C49.9151 44.6583 51.4312 46.1744 51.4312 48.0444C51.4312 49.9145 49.9151 51.4305 48.045 51.4305C46.175 51.4305 44.6589 49.9145 44.6589 48.0444Z" fill="#0D0B10"/>
<path d="M42.4089 11.9556C42.4089 8.84282 44.9324 6.31946 48.045 6.31946C51.1577 6.31946 53.6812 8.84282 53.6812 11.9556C53.6812 15.0683 51.1577 17.5917 48.045 17.5917C44.9324 17.5917 42.4089 15.0683 42.4089 11.9556ZM48.045 8.56946C46.175 8.56946 44.6589 10.0855 44.6589 11.9556C44.6589 13.8256 46.175 15.3417 48.045 15.3417C49.9151 15.3417 51.4312 13.8256 51.4312 11.9556C51.4312 10.0855 49.9151 8.56946 48.045 8.56946Z" fill="#1FFA69"/>
<path d="M24.365 30C24.365 26.8873 26.8884 24.3639 30.0011 24.3639C33.1138 24.3639 35.6372 26.8873 35.6372 30C35.6372 33.1127 33.1138 35.6361 30.0011 35.6361C26.8884 35.6361 24.365 33.1127 24.365 30ZM30.0011 26.6139C28.131 26.6139 26.615 28.1299 26.615 30C26.615 31.87 28.131 33.3861 30.0011 33.3861C31.8712 33.3861 33.3872 31.87 33.3872 30C33.3872 28.1299 31.8712 26.6139 30.0011 26.6139Z" fill="#1FFA69"/>
<path d="M11.9564 42.4083C8.84368 42.4083 6.32031 44.9317 6.32031 48.0444C6.32031 51.1571 8.84368 53.6805 11.9564 53.6805C15.0691 53.6805 17.5925 51.1571 17.5925 48.0444C17.5925 44.9317 15.0691 42.4083 11.9564 42.4083ZM8.57031 48.0444C8.57031 46.1744 10.0863 44.6583 11.9564 44.6583C13.8265 44.6583 15.3425 46.1744 15.3425 48.0444C15.3425 49.9145 13.8265 51.4305 11.9564 51.4305C10.0863 51.4305 8.57031 49.9145 8.57031 48.0444Z" fill="#1FFA69"/>
</svg>
