<svg width="24" height="24" viewBox="0 0 24 24" fill="none" xmlns="http://www.w3.org/2000/svg">
<path d="M0 12C0 15.1826 1.26428 18.2348 3.51472 20.4853C5.76516 22.7357 8.8174 24 12 24C15.1826 24 18.2348 22.7357 20.4853 20.4853C22.7357 18.2348 24 15.1826 24 12C24 8.8174 22.7357 5.76516 20.4853 3.51472C18.2348 1.26428 15.1826 0 12 0C8.8174 0 5.76516 1.26428 3.51472 3.51472C1.26428 5.76516 0 8.8174 0 12Z" fill="#0D0B10"/>
<path d="M9.6398 19.48C9.7198 19.36 9.7998 19.24 9.7998 19.2V17.56C7.3198 18.08 6.7998 16.52 6.7998 16.52C6.3998 15.48 5.7998 15.2 5.7998 15.2C4.9998 14.64 5.8798 14.64 5.8798 14.64C6.7598 14.72 7.2398 15.56 7.2398 15.56C8.0398 16.92 9.3198 16.52 9.8398 16.32C9.9198 15.76 10.1598 15.36 10.3998 15.12C8.3998 14.88 6.3198 14.12 6.3198 10.72C6.3198 9.76001 6.6798 8.96001 7.2398 8.32001C7.1598 8.08001 6.8398 7.20001 7.3198 5.96001C7.3198 5.96001 8.0798 5.72001 9.7598 6.88001C10.4798 6.68001 11.2398 6.60001 11.9998 6.60001C12.7598 6.60001 13.5198 6.72001 14.2398 6.88001C15.9598 5.72001 16.6798 5.96001 16.6798 5.96001C17.1598 7.20001 16.8798 8.08001 16.7598 8.32001C17.3198 8.96001 17.6798 9.72001 17.6798 10.72C17.6798 14.12 15.5998 14.88 13.5998 15.12C13.9198 15.4 14.1998 15.92 14.1998 16.76V19.2C14.1998 19.28 14.2398 19.36 14.3598 19.48C14.4798 19.64 14.4398 19.92 14.2798 20.04C14.1998 20.08 14.1198 20.12 14.0398 20.12H9.9598C9.7198 20.12 9.5598 19.96 9.5598 19.72C9.5598 19.6 9.5998 19.52 9.6398 19.48Z" fill="white"/>
</svg>
