<svg width="99" height="56" viewBox="0 0 99 56" fill="none" xmlns="http://www.w3.org/2000/svg">
<g clip-path="url(#clip0_62_819)">
<path d="M98.6265 0.0859995L98.5693 0.0846965L91.4235 0.05603L77.1333 0L71.75 0.00521209V0.30621L77.1333 0.312725L91.4235 0.255392L98.5693 0.226726H98.6265V0.0859995Z" fill="#025F84"/>
<path d="M69.8323 0.0078125L48.5531 0.0312669L0 0.123782V0.18763L48.5531 0.280144L69.8323 0.303599V0.0078125Z" fill="#025F84"/>
<path d="M57.7366 8.49299H57.6449C56.9949 8.47214 51.7964 8.44868 51.1451 8.43305C50.4938 8.41741 45.3046 8.4109 44.6546 8.40178C43.3559 8.38093 28.1991 8.39266 26.8991 8.40178C25.5991 8.4109 10.4409 8.45911 9.14093 8.4995C8.47633 8.51905 4.20028 8.55032 0 8.58681V8.89041C4.23617 8.9269 8.59861 8.95817 9.26986 8.97771C10.5698 9.01941 25.6669 9.06371 26.9656 9.07544C28.2642 9.08717 43.3559 9.09238 44.6546 9.07544C45.3046 9.06502 50.5031 9.06111 51.1517 9.04417C51.8004 9.02723 57.0002 9.00508 57.6515 8.98292H57.7366V8.49299Z" fill="#025F84"/>
<path d="M98.6266 8.51936C97.7134 8.50242 96.9744 8.49069 96.6208 8.48157L93.3736 8.45421L90.1276 8.43597H89.1972C88.6403 8.43597 84.1941 8.42294 83.6371 8.43597C82.7067 8.45942 75.2778 8.48287 74.35 8.51415C73.9792 8.52718 71.011 8.5389 70.6402 8.54281C69.8719 8.55324 65.9122 8.55193 62.54 8.54281V8.93372C65.9136 8.92069 69.8759 8.91808 70.6482 8.93372C71.019 8.93372 73.9818 8.95066 74.3526 8.96369C75.2831 8.99496 82.7107 9.01842 83.6398 9.04057C84.1954 9.0536 88.6429 9.04057 89.1999 9.04057H90.1303L93.3682 9.02233L96.6248 8.99366C96.9797 8.98584 97.7187 8.97281 98.6306 8.95718L98.6266 8.51936Z" fill="#025F84"/>
<path d="M98.627 2.90057C98.2509 2.90057 97.993 2.89275 97.9199 2.89015L94.7551 2.87321L91.5902 2.85757H90.6811C90.4963 2.85757 85.448 2.83933 85.2619 2.84454C84.9522 2.85236 76.5158 2.83672 76.206 2.84454C76.0824 2.84454 72.7129 2.85497 72.5893 2.85627H70.8613V3.18072H72.5893C72.7129 3.18072 76.0758 3.18854 76.1994 3.19245C76.5078 3.20287 84.9455 3.19245 85.2552 3.19245C85.44 3.19245 90.4896 3.17942 90.6757 3.17942H91.5823L94.7365 3.16508L97.9132 3.14814C97.9863 3.14814 98.2442 3.14815 98.6204 3.13772L98.627 2.90057Z" fill="#025F84"/>
<path d="M68.2413 2.85341C64.6764 2.85341 60.1823 2.85341 59.9178 2.84168C59.7012 2.83517 53.7955 2.83126 53.5789 2.82605C53.3622 2.82083 47.4645 2.82605 47.2532 2.82605C46.8199 2.81823 29.0643 2.8469 28.6324 2.8482C28.2004 2.8495 10.4396 2.8912 10.0062 2.90553C9.77895 2.91205 4.76652 2.92899 0 2.94853V3.09056C4.80773 3.11011 9.93712 3.12705 10.1671 3.13356C10.6004 3.1479 28.2815 3.18699 28.7134 3.1909C29.1454 3.1948 46.8199 3.22086 47.2532 3.21304C47.4698 3.21304 53.3675 3.21304 53.5881 3.21304C53.8088 3.21304 59.7091 3.20392 59.9258 3.19741C60.1916 3.18699 64.6777 3.18438 68.2413 3.18568V2.85341Z" fill="#025F84"/>
<path d="M98.6268 5.70442C97.9622 5.6953 97.4664 5.68749 97.271 5.68227L94.0636 5.66012L90.8589 5.64318H89.9378C89.5682 5.64318 84.8204 5.62754 84.4495 5.64318C83.8301 5.65751 75.8961 5.66142 75.278 5.68227C75.0308 5.69139 71.8633 5.70052 71.616 5.70312C71.3183 5.70312 69.8176 5.70964 67.9395 5.70312V6.05233C69.8203 6.05233 71.3236 6.05233 71.6214 6.05233C71.8686 6.05233 75.0308 6.06406 75.278 6.07318C75.8974 6.09403 83.8301 6.09794 84.4495 6.11357C84.8204 6.12139 89.5696 6.11357 89.9404 6.10706H90.8589L94.049 6.09142L97.267 6.06797C97.4637 6.06797 97.9622 6.05494 98.6228 6.04582L98.6268 5.70442Z" fill="#025F84"/>
<path d="M64.7401 5.69559C61.9076 5.69559 59.192 5.68126 58.7813 5.66693C58.3479 5.65259 52.7998 5.63956 52.3612 5.62914C51.9226 5.61871 46.3878 5.61611 45.9544 5.60959C45.0878 5.59526 28.6323 5.60959 27.7656 5.61871C26.899 5.62783 10.4395 5.66953 9.57417 5.69689C9.1249 5.70992 4.48465 5.73338 0.00390625 5.76074V5.98356C4.5232 6.01223 9.26843 6.03698 9.72302 6.05001C10.5897 6.07738 26.9774 6.11907 27.8441 6.12689C28.7107 6.13471 45.0918 6.15034 45.9584 6.13601C46.3918 6.1295 51.9399 6.1295 52.3732 6.11777C52.8065 6.10604 58.3546 6.09431 58.7919 6.07998C59.2026 6.06435 61.9142 6.05523 64.7441 6.05001L64.7401 5.69559Z" fill="#025F84"/>
<path d="M49.142 11.2215C47.4791 11.2059 44.0697 11.1993 43.3559 11.1889C41.628 11.1602 27.7657 11.1642 26.0338 11.1707C24.3018 11.1772 10.4409 11.2332 8.70894 11.2879C7.83964 11.314 3.91317 11.3505 0 11.3948V11.7857C3.9464 11.83 7.942 11.8678 8.82194 11.8938C10.5499 11.9486 24.359 11.9955 26.0909 12.0111C27.8229 12.0268 41.624 12.0215 43.3559 11.9929C44.0684 11.9825 47.4765 11.9759 49.142 11.9603V11.2215Z" fill="#025F84"/>
<path d="M98.6268 11.3352C97.485 11.3118 96.5094 11.2935 95.9684 11.2805L92.6813 11.2479L89.3941 11.2271H88.4504C87.7087 11.2271 83.5629 11.2179 82.8212 11.2349C81.5838 11.2648 74.6559 11.3092 73.4185 11.3509C72.924 11.3665 70.1566 11.3821 69.6621 11.3873C67.9342 11.4108 58.231 11.3873 56.503 11.3209C56.1481 11.3092 55.1273 11.2961 53.9775 11.2844V11.9059C55.122 11.8942 56.1468 11.8812 56.503 11.8695C58.231 11.8056 67.9262 11.7795 69.6621 11.803C70.1566 11.803 72.9173 11.8238 73.4118 11.8395C74.6506 11.8812 81.5771 11.9255 82.8146 11.9555C83.5563 11.9724 87.7034 11.9672 88.4451 11.9633H89.3875L92.668 11.9424L95.9631 11.9098C96.5027 11.8968 97.4783 11.8786 98.6215 11.8551L98.6268 11.3352Z" fill="#025F84"/>
<path d="M41.4486 13.976C38.1707 13.9474 27.1809 13.9435 25.1671 13.9513C23.0019 13.9721 10.4409 14.0216 8.27562 14.0894C7.21226 14.1207 3.62341 14.1637 0 14.2197V14.6953C3.65398 14.7474 7.296 14.7904 8.37398 14.8256C10.5393 14.8947 23.0537 14.9442 25.2176 14.965C27.2314 14.965 38.1774 14.965 41.4499 14.939L41.4486 13.976Z" fill="#025F84"/>
<path d="M98.6271 14.1534C97.2753 14.1221 96.067 14.0974 95.3213 14.0792L91.9983 14.0414L88.6753 14.0192C88.5198 14.0192 87.8778 14.0192 87.7196 14.0127C86.7892 14.0127 82.9478 14.0127 82.02 14.0283C80.4728 14.0661 74.0448 14.1287 72.5016 14.1808C71.8835 14.2016 69.3115 14.2199 68.7001 14.2277C66.5348 14.2564 57.5467 14.2199 55.3815 14.1391C54.4244 14.1078 50.801 14.0713 49.2246 14.044V14.8518C50.7971 14.8258 54.4284 14.788 55.3854 14.7567C57.5507 14.6772 66.5388 14.6408 68.7041 14.6694C69.3221 14.6759 71.8835 14.6942 72.5016 14.715C74.0488 14.7671 80.4768 14.8297 82.02 14.8688C82.9505 14.8896 86.7932 14.8883 87.721 14.8831H88.674L91.997 14.861L95.332 14.8219C96.0803 14.8036 97.2886 14.7789 98.6377 14.7489L98.6271 14.1534Z" fill="#025F84"/>
<path d="M98.6267 16.9731C97.0795 16.9327 95.6466 16.9027 94.6723 16.878L91.3028 16.835L87.9346 16.8102L86.9669 16.8037C85.8544 16.8037 82.3147 16.8037 81.1982 16.8272C79.3373 16.8728 73.421 16.9575 71.5641 17.0174C70.8224 17.0422 68.4578 17.063 67.7094 17.0721C65.1108 17.106 56.8272 17.0604 54.2286 16.964C52.9672 16.9223 49.0354 16.8715 47.6172 16.8402V17.7732C49.0328 17.7419 52.9699 17.6911 54.2326 17.6494C56.8312 17.5529 65.1135 17.506 67.7121 17.5412C68.4538 17.549 70.8145 17.5712 71.5561 17.5959C73.417 17.6585 79.3333 17.7406 81.1902 17.7862C82.3041 17.8122 85.8491 17.8149 86.9616 17.8083C87.1477 17.8083 87.7405 17.8083 87.9279 17.8018L91.2908 17.7784L94.6657 17.7341C95.6426 17.7106 97.0755 17.6793 98.62 17.6402L98.6267 16.9731Z" fill="#025F84"/>
<path d="M36.0902 16.7348C31.7689 16.7192 26.0573 16.7153 24.3015 16.7218C21.7029 16.7465 10.4419 16.7986 7.84327 16.8807C6.59382 16.9172 3.33329 16.9654 0.000976562 17.0241V17.5883C3.35987 17.6469 6.66292 17.6964 7.92567 17.7329C10.5229 17.815 21.7494 17.8632 24.344 17.8919C26.0985 17.8984 31.7875 17.8919 36.0915 17.8775L36.0902 16.7348Z" fill="#025F84"/>
<path d="M42.7755 19.5896C41.4809 19.5778 40.1995 19.5674 39.4592 19.557C38.7826 19.5453 37.7604 19.5361 36.5469 19.5283V20.8027C37.7591 20.7936 38.7813 20.7844 39.4592 20.774C40.1995 20.7623 41.4809 20.7519 42.7755 20.7401V19.5896Z" fill="#025F84"/>
<path d="M30.9707 19.5038C27.8869 19.4947 24.8803 19.4921 23.4381 19.4973C20.4075 19.5273 10.4452 19.5807 7.41457 19.6771C5.99232 19.7188 3.04415 19.7709 0.00292969 19.8361V20.4876C3.0601 20.5527 6.04416 20.6062 7.47837 20.6479C10.5103 20.7443 20.4394 20.799 23.4713 20.8277C24.9095 20.8277 27.9002 20.8277 30.9707 20.8277V19.5038Z" fill="#025F84"/>
<path d="M98.627 19.7955C96.899 19.7447 95.2468 19.7069 94.0226 19.6769L90.6132 19.6287L87.2038 19.6026L86.2242 19.5961C84.9255 19.5883 81.6836 19.5961 80.385 19.6248C78.2197 19.6782 72.8019 19.7798 70.6353 19.8541C69.77 19.8828 67.6074 19.9075 66.7421 19.9167C63.7102 19.9571 56.1297 19.8997 53.0991 19.7864C52.3122 19.7603 50.9112 19.7303 49.5342 19.703V20.6151C50.9126 20.5877 52.3136 20.5577 53.1018 20.5317C56.1337 20.4209 63.7128 20.3636 66.7447 20.4014C67.6087 20.4118 69.77 20.4353 70.6353 20.4639C72.8019 20.5382 78.2184 20.6398 80.385 20.6933C81.6836 20.7232 84.9269 20.7297 86.2255 20.7219L87.2038 20.7154L90.6079 20.6894L94.0226 20.6411C95.2495 20.6112 96.899 20.5734 98.627 20.5239V19.7955Z" fill="#025F84"/>
<path d="M98.6268 22.619C96.7221 22.5577 94.8665 22.5134 93.3725 22.4756L89.9166 22.4222L86.4606 22.3935L85.4691 22.387C83.9857 22.3792 81.0441 22.387 79.5608 22.4235C77.0845 22.4848 72.1704 22.6059 69.6954 22.6841C68.7065 22.718 66.7432 22.7454 65.7543 22.7558C63.7698 22.7819 60.6661 22.7714 57.7246 22.7336V23.3018C60.6661 23.264 63.7711 23.2535 65.757 23.2809C66.7459 23.2913 68.7065 23.3187 69.6941 23.3513C72.1704 23.4347 77.0845 23.5571 79.5594 23.6119C81.0441 23.6471 83.987 23.6575 85.4704 23.6497L86.4606 23.6418L89.9073 23.6145L93.3632 23.5598C94.8599 23.5233 96.7141 23.4777 98.6175 23.4177L98.6268 22.619Z" fill="#025F84"/>
<path d="M26.4099 22.2715C24.88 22.2715 23.5256 22.2715 22.5699 22.2715C19.1046 22.3054 10.4435 22.3627 6.97832 22.4722C5.40321 22.5178 2.74879 22.5751 0 22.6441V23.3986C2.76474 23.469 5.43911 23.5289 7.02751 23.5732C10.4914 23.6827 19.1299 23.74 22.5938 23.7726C23.5468 23.7726 24.8906 23.7726 26.4099 23.7726V22.2715Z" fill="#025F84"/>
<path d="M41.8211 22.3874C40.46 22.3718 39.0736 22.3601 38.1605 22.3457C37.0971 22.3288 35.5459 22.3145 33.8047 22.3027V23.7491C35.5446 23.7374 37.0958 23.7217 38.1605 23.7048C39.0736 23.6918 40.46 23.6787 41.8211 23.6631V22.3874Z" fill="#025F84"/>
<path d="M23.5002 25.0518C22.8476 25.0518 22.2415 25.0518 21.7031 25.0518C17.8059 25.0882 10.4435 25.1482 6.55023 25.272C4.84088 25.3215 2.46293 25.3827 0.00390625 25.4557V26.3118C2.47357 26.3861 4.86347 26.4421 6.58213 26.4968C10.4794 26.6206 17.8258 26.6805 21.7244 26.717C22.2561 26.717 22.8582 26.717 23.5042 26.717L23.5002 25.0518Z" fill="#025F84"/>
<path d="M44.3678 25.2565L43.8362 25.2434C41.8875 25.19 38.8038 25.1639 36.8552 25.1353L34.876 25.1079V26.6546C35.5977 26.6468 36.2663 26.6377 36.8552 26.6285C38.8038 26.5999 41.8902 26.5738 43.8388 26.5204L44.3625 26.5074L44.3678 25.2565Z" fill="#025F84"/>
<path d="M98.6267 25.4428C96.5531 25.3712 94.5061 25.3125 92.7237 25.2734L89.2319 25.2148L85.7414 25.1848L84.7378 25.177C83.0697 25.1679 80.4285 25.177 78.7564 25.2213C75.9651 25.2904 71.5614 25.4311 68.7767 25.5249C67.6642 25.5627 65.9017 25.5927 64.7891 25.6044H64.7373V26.1543H64.7905C65.903 26.166 67.6629 26.196 68.7781 26.2338C71.5627 26.3276 75.9744 26.4683 78.7591 26.5374C80.4285 26.5765 83.071 26.5908 84.7405 26.5817L85.7414 26.5739L89.2292 26.5439L92.7237 26.484C94.5048 26.441 96.5544 26.3875 98.6267 26.3159V25.4428Z" fill="#025F84"/>
<path d="M49.1419 28.2429C47.075 28.1752 44.6133 28.0931 42.6288 28.0449C40.4635 27.9862 37.7307 27.9563 35.5654 27.925C34.4529 27.9068 33.226 27.8898 31.9434 27.8755V29.6046C33.2247 29.5903 34.4529 29.5733 35.5654 29.5564C37.7307 29.5238 40.4635 29.4938 42.6288 29.4352C44.6226 29.387 47.079 29.3049 49.1419 29.2371V28.2429Z" fill="#025F84"/>
<path d="M19.1405 27.8418C15.02 27.8835 9.90788 27.946 6.11434 28.0659C4.29731 28.118 2.17325 28.1819 0 28.2575V29.2217C2.17723 29.2986 4.30663 29.3624 6.12897 29.4159C9.91454 29.5344 15.016 29.5983 19.1339 29.64L19.1405 27.8418Z" fill="#025F84"/>
<path d="M98.6266 28.2728C96.3883 28.1868 94.1552 28.1255 92.0737 28.0734L88.542 28.0096L85.0103 27.9783L83.9948 27.9692C82.1339 27.9601 79.7998 27.977 77.9469 28.0213C76.8024 28.0487 75.5477 28.0891 74.2637 28.1334V29.3517C75.5477 29.3947 76.8024 29.4351 77.9469 29.4637C79.8011 29.5067 82.1419 29.525 83.9974 29.5146L85.0103 29.5067L88.5407 29.4742L92.0737 29.4103C94.1565 29.3582 96.3896 29.297 98.6266 29.2123V28.2728Z" fill="#025F84"/>
<path d="M53.0216 31.2219C51.5311 31.1837 50.0416 31.1403 48.5528 31.0916C46.1709 31.0121 43.789 30.9105 41.4071 30.8532C39.0251 30.7958 36.6432 30.7541 34.2613 30.7229C32.4464 30.6942 30.6299 30.6699 28.8115 30.6499V32.5575C30.6272 32.5367 32.4438 32.5119 34.2613 32.4833C36.6432 32.4481 39.0251 32.4155 41.4071 32.353C43.789 32.2904 46.1709 32.1927 48.5528 32.1145C50.0416 32.0589 51.5311 32.0155 53.0216 31.9842V31.2219Z" fill="#025F84"/>
<path d="M11.6491 30.7148C9.65975 30.7522 7.67038 30.8008 5.68101 30.8608C3.78734 30.9164 1.89367 30.9837 0 31.0627V32.1351C1.89456 32.2124 3.78823 32.2793 5.68101 32.3358C7.67127 32.3983 9.66063 32.447 11.6491 32.4817V30.7148Z" fill="#025F84"/>
<path d="M98.6265 31.1016C96.226 31.0013 93.8254 30.9322 91.4236 30.8723L87.852 30.8032L87.0186 30.7954V32.402L87.852 32.3942L91.4236 32.3239C93.8254 32.2652 96.226 32.1936 98.6265 32.0958V31.1016Z" fill="#025F84"/>
<path d="M6.45089 46.3915C6.45089 46.3915 7.03043 46.8359 7.38134 47.1564C7.35741 47.2476 7.27102 47.2867 7.15139 47.2867H0.0667288L0.00292969 47.0483H3.03086V40.167L4.13144 40.2973C4.11549 40.412 4.053 40.4941 3.84697 40.5279V43.2291H5.36891L5.87534 42.5776C5.87534 42.5776 6.43094 43.0141 6.77122 43.3359C6.75719 43.3791 6.72795 43.4159 6.68873 43.4398C6.64951 43.4636 6.60289 43.473 6.55724 43.4662H3.84697V47.047H5.9551L6.45089 46.3915Z" fill="#2D2D2D"/>
<path d="M11.4414 42.0353C13.3023 42.2008 12.7493 43.5911 12.0594 43.1389C11.9319 42.738 11.6969 42.378 11.3789 42.0965L11.4414 42.0353ZM13.6532 41.501C13.3594 42.5213 12.8291 44.4315 12.7334 44.8589C12.6717 45.11 12.6374 45.3669 12.631 45.6251C12.639 46.029 12.9154 46.3743 12.8835 47.0741C12.8835 47.465 12.6709 47.7073 12.3373 47.7073C12.1711 47.7073 12.0289 47.577 11.989 47.2969C12.1219 46.4486 12.0834 45.7241 11.9013 45.6029C11.7842 45.5223 11.6456 45.477 11.5025 45.4726V45.3085H11.8507C11.9544 45.3085 11.9837 45.2993 12.0648 45.1352C12.2163 44.8303 12.2163 44.8303 13.5149 41.4633L13.6532 41.501ZM11.981 40.1342C13.9456 40.3648 13.3913 41.8138 12.6629 41.3277C12.5592 40.916 12.2189 40.4716 11.9172 40.1993L11.981 40.1342ZM17.8774 44.382C17.8455 45.0739 17.7976 45.6251 17.7444 46.0525H17.791L18.1326 45.5183C18.1326 45.5183 18.5207 45.8961 18.7427 46.1606C18.7305 46.2033 18.7029 46.2401 18.6649 46.2641C18.6269 46.2881 18.5813 46.2977 18.5366 46.2909H17.7125C17.6168 46.8499 17.4985 47.1796 17.331 47.3607C17.0945 47.6213 16.7608 47.706 16.4006 47.7151C16.4006 47.5002 16.3767 47.3438 16.281 47.2461C16.1853 47.1483 15.9407 47.048 15.6709 46.9855V46.8552C15.9367 46.8799 16.3528 46.9125 16.5109 46.9125C16.5626 46.9182 16.6149 46.9115 16.6634 46.8929C16.7118 46.8742 16.7548 46.8443 16.7888 46.8056C16.8685 46.7314 16.931 46.5581 16.9948 46.2844H14.5145L14.2127 46.6297L13.5003 46.1528C13.588 46.0823 13.6834 46.0215 13.7847 45.9717C13.8725 45.5599 13.9589 44.9749 14.0506 44.3742H13.1946L13.1308 44.1358H14.0825C14.1769 43.4842 14.2487 42.8327 14.3045 42.2828C14.0475 42.6237 13.7463 42.9304 13.4086 43.195L13.3142 43.1207C13.8765 42.3884 14.3683 41.1127 14.5743 40.0664L15.6376 40.3961C15.6057 40.486 15.5419 40.5264 15.3439 40.4951C15.2562 40.7166 15.1459 40.9316 15.0262 41.1623H17.5703L17.9983 40.5694C17.9983 40.5694 18.4901 40.972 18.7759 41.2691C18.76 41.359 18.6722 41.3994 18.5619 41.3994H14.8867C14.783 41.5714 14.6727 41.7525 14.5623 41.9089L15.1884 42.2307H17.1689L17.5677 41.802L18.2814 42.4366C18.191 42.5262 18.0696 42.5792 17.9412 42.5852C17.9252 43.1689 17.9093 43.6797 17.8933 44.141H17.9491L18.3054 43.5637C18.3054 43.5637 18.7041 43.9677 18.9235 44.2478C18.9075 44.3377 18.8278 44.3781 18.7174 44.3781L17.8774 44.382ZM17.0293 46.0525C17.1102 45.4987 17.1603 44.9411 17.1795 44.382H14.7391C14.6514 44.9827 14.557 45.5834 14.4733 46.0525H17.0293ZM14.993 42.4718C14.9372 42.9331 14.8601 43.5259 14.771 44.1436H17.1955C17.2194 43.6497 17.2354 43.1011 17.2513 42.4718H14.993ZM15.3492 44.5462C16.9655 45.0153 16.4272 46.1606 15.8716 45.7189C15.8091 45.3489 15.5154 44.8798 15.2774 44.6074L15.3492 44.5462ZM15.4755 42.735C17.0453 43.1559 16.5694 44.2413 16.0152 43.8387C15.9354 43.5012 15.6337 43.0568 15.3971 42.7962L15.4755 42.735Z" fill="#2D2D2D"/>
<path d="M26.8951 40.3401C26.8792 40.4548 26.8154 40.5368 26.6093 40.5707C26.7835 43.6745 27.5132 45.6825 30.2394 46.8435L30.2234 46.9347C29.8353 47.0077 29.5735 47.2552 29.4711 47.6826C27.4095 46.5307 26.7675 44.6036 26.5535 42.0353C26.4113 44.0941 25.8411 46.205 22.9248 47.7074L22.8291 47.5849C25.8411 45.4518 25.7853 42.7924 25.7932 40.2241L26.8951 40.3401Z" fill="#2D2D2D"/>
<path d="M40.6992 46.1438C40.6992 46.1438 41.2774 46.5881 41.619 46.9099C41.5951 46.9998 41.5153 47.0402 41.397 47.0402H34.311L34.2393 46.8005H37.4838V41.5741H34.8254L34.7616 41.3356H39.6917L40.1901 40.6685C40.1901 40.6685 40.7537 41.1219 41.1099 41.4425C41.086 41.5337 40.9983 41.5728 40.88 41.5728H38.296V46.8005H40.1821L40.6992 46.1438Z" fill="#2D2D2D"/>
<path d="M47.749 42.4226C47.7171 42.5633 47.6773 42.6949 47.6387 42.8265C49.5248 43.065 49.2471 44.3993 48.5572 44.0853C48.3831 43.723 47.9471 43.2956 47.559 43.0077C47.2572 43.65 46.6791 44.1595 45.5067 44.5465L45.4189 44.424C46.5209 43.8807 46.909 43.2292 47.0512 42.4226H45.4987L45.4349 42.1841H47.0831C47.115 41.8884 47.123 41.5743 47.131 41.2369H46.703C46.4761 41.5784 46.1824 41.8724 45.839 42.1021L45.7366 42.02C46.0828 41.4144 46.3134 40.7521 46.4172 40.0654L47.3848 40.3625C47.3618 40.4204 47.3194 40.4689 47.2646 40.5001C47.2098 40.5314 47.1458 40.5435 47.0831 40.5345C47.0127 40.7 46.9329 40.8472 46.8532 40.9958H48.1172L48.5293 40.4524C48.7868 40.6566 49.0331 40.8741 49.267 41.1039C49.251 41.1952 49.1633 41.2342 49.061 41.2342H47.8647C47.8562 41.5512 47.83 41.8674 47.7863 42.1815H48.2462L48.6662 41.6382C48.6662 41.6382 49.1168 42.0082 49.4026 42.2897C49.3786 42.3809 49.3082 42.42 49.1966 42.42L47.749 42.4226ZM50.9086 44.0449L51.6768 44.6534C51.5991 44.7448 51.4889 44.8039 51.3685 44.8189V47.464C51.3605 47.5213 50.9883 47.6699 50.7424 47.6699H50.6095V47.1838H47.5856V47.464C47.5856 47.5383 47.2679 47.7103 46.9515 47.7103H46.8399V44.11L47.6374 44.4566H50.5457L50.9086 44.0449ZM47.5856 44.6964V45.6763H50.6201V44.6964H47.5856ZM50.6201 46.9519V45.9095H47.5856V46.9519H50.6201ZM52.6658 41.1561C52.577 41.2426 52.4634 41.3004 52.3401 41.3215V43.7087C52.3321 43.766 51.9679 43.9146 51.73 43.9146H51.6117V43.3712H50.2559V43.8155C50.2559 43.882 49.9555 44.0631 49.6538 44.0631H49.5435V40.6205L50.2958 40.9489H51.5319L51.8961 40.5462L52.6658 41.1561ZM51.6117 43.1328V41.1886H50.2559V43.1314L51.6117 43.1328Z" fill="#2D2D2D"/>
<path d="M59.5136 40.958C61.5074 41.6096 60.884 43.1393 60.2101 42.579C60.1913 42.4038 60.1465 42.2321 60.0772 42.0695C59.491 42.2259 58.5792 42.4474 57.5517 42.6533C57.5077 42.7114 57.4509 42.759 57.3856 42.7927L57.0439 41.9288C57.1207 41.9128 57.1952 41.8879 57.2659 41.8545C57.7418 41.5014 58.3758 40.5215 58.5739 40.0029L59.5721 40.4056C59.5466 40.456 59.5051 40.497 59.4538 40.5223C59.4025 40.5477 59.3442 40.5561 59.2877 40.5463C58.8021 41.0744 58.2567 41.5465 57.662 41.9536C58.2575 41.9457 59.1135 41.921 60.0081 41.8884C59.8591 41.5741 59.6644 41.2826 59.4299 41.0232L59.5136 40.958ZM59.9124 42.7523L60.7099 43.3699C60.6239 43.4634 60.5054 43.522 60.3776 43.5341V46.7291C60.3776 47.2803 60.2739 47.6009 59.4657 47.6829C59.4668 47.4915 59.4213 47.3025 59.3328 47.1318C59.2707 47.0571 59.1938 46.9956 59.1068 46.9508C59.0197 46.906 58.9244 46.8789 58.8264 46.8712V46.7487C58.8264 46.7487 59.3488 46.7891 59.5003 46.7891C59.6186 46.7891 59.6425 46.7487 59.6425 46.6405V45.5981H58.2788V47.4419C58.2788 47.524 57.9943 47.7025 57.6926 47.7025H57.5823V42.8422L58.3187 43.1641H59.5628L59.9124 42.7523ZM58.2788 43.4038V44.2351H59.6425V43.4038H58.2788ZM59.6425 45.3584V44.4671H58.2788V45.3571L59.6425 45.3584ZM62.0125 43.6644C61.3147 43.6644 61.1725 43.5172 61.1725 42.9816V40.1671L62.1548 40.2661C62.1468 40.3652 62.0683 40.4473 61.9088 40.472V41.6982C62.4525 41.3827 62.9554 41.0043 63.4069 40.571L64.215 41.1965C64.1446 41.2786 64.001 41.2864 63.787 41.2291C63.1825 41.5039 62.5539 41.7246 61.9088 41.8884V42.8096C61.9088 42.9399 61.9407 42.966 62.1946 42.966H62.8366C63.1025 42.966 63.3284 42.966 63.4228 42.9582C63.4577 42.9613 63.4929 42.9544 63.5238 42.9382C63.5548 42.922 63.5802 42.8972 63.5969 42.867C63.7184 42.5965 63.8141 42.3156 63.8827 42.0278H63.9771L64.001 42.9009C64.215 42.9829 64.2668 43.065 64.2668 43.2136C64.2668 43.5341 63.9585 43.6657 62.7688 43.6657L62.0125 43.6644ZM64.0967 46.7682C64.3107 46.8503 64.3745 46.9415 64.3745 47.0901C64.3745 47.4106 64.0568 47.55 62.8366 47.55H62.0604C61.3466 47.55 61.1964 47.3859 61.1964 46.8425V43.9211L62.1867 44.0202C62.1787 44.1192 62.0989 44.2013 61.9407 44.226V45.4769C62.4914 45.1356 62.9949 44.7262 63.4388 44.2586L64.2948 44.8762C64.223 44.9583 64.0887 44.9831 63.8588 44.9258C63.249 45.245 62.606 45.4988 61.9407 45.6828V46.6705C61.9407 46.8008 61.9806 46.8438 62.2265 46.8438H62.9004C63.1769 46.8438 63.4148 46.8438 63.5026 46.836C63.5388 46.8352 63.5744 46.8258 63.6061 46.8086C63.6378 46.7913 63.6648 46.7667 63.6847 46.737C63.8085 46.4381 63.9063 46.1295 63.9771 45.8144H64.0728L64.0967 46.7682Z" fill="#2D2D2D"/>
<path d="M74.8538 44.2506C74.8538 44.2506 75.4014 44.7119 75.7257 45.0246C75.7098 45.1145 75.6234 45.1549 75.5038 45.1549H72.5954C72.5457 45.2924 72.4875 45.4268 72.4213 45.5575C76.0594 46.209 75.5516 48.0437 74.7195 47.5993C74.3872 47.0977 73.5073 46.2963 72.3336 45.7061C71.7793 46.5869 70.6934 47.2462 68.5215 47.7231L68.459 47.5928C70.5033 46.9583 71.3992 46.1856 71.782 45.1562H68.7594L68.6969 44.9177H71.867C72.1196 44.0851 72.097 43.0935 72.097 41.896L73.1976 42.0029C73.1816 42.1175 73.1112 42.2009 72.9211 42.2257C72.8972 43.2681 72.8972 44.1594 72.6672 44.9177H74.3793L74.8538 44.2506ZM69.6872 41.6576C69.7191 42.2257 69.513 42.6205 69.2432 42.7847C68.9973 42.9502 68.6171 42.8915 68.5135 42.5879C68.435 42.3078 68.5932 42.0941 68.8391 41.9703C69.0196 41.8654 69.1689 41.7158 69.2718 41.5364C69.3746 41.3571 69.4276 41.1544 69.4253 40.9487H69.5369C69.5886 41.1019 69.6281 41.2587 69.6553 41.4178H74.6491L75.0758 40.9578L75.8454 41.7227C75.761 41.7909 75.6526 41.8237 75.5436 41.8139C75.2409 42.1537 74.9007 42.4596 74.5294 42.726L74.4497 42.6687C74.5295 42.3886 74.6331 41.9846 74.6956 41.6563L69.6872 41.6576ZM69.6074 43.2876C71.7634 43.5183 71.2556 45.0572 70.4794 44.5907C70.3371 44.1633 69.9012 43.6447 69.5489 43.3398L69.6074 43.2876ZM70.2175 42.0276C72.2313 42.2413 71.7315 43.6499 71.015 43.229C70.8715 42.8381 70.4674 42.3573 70.1511 42.0941L70.2175 42.0276ZM71.5467 40.0601C73.5405 40.2412 72.8148 41.8387 72.0465 41.2458C71.9972 40.8155 71.7948 40.416 71.4749 40.1174L71.5467 40.0601Z" fill="#2D2D2D"/>
<path d="M81.8429 45.1809C81.5412 45.4194 81.0826 45.7738 80.4326 46.2234C80.4217 46.2696 80.4002 46.3129 80.3698 46.3499C80.3394 46.3869 80.3009 46.4167 80.2572 46.4371L79.8584 45.5393C80.208 45.4819 81.0161 45.293 81.8163 45.0871L81.8429 45.1809ZM83.095 44.0773C84.601 45.5432 83.9909 47.0169 83.4114 46.3745C83.4353 45.6579 83.1974 44.7444 82.9847 44.1099C82.9011 44.1842 82.7953 44.2299 82.683 44.2402C82.6112 46.2572 82.437 47.1303 82.1047 47.443C81.8946 47.636 81.615 47.7396 81.3272 47.731C81.3272 47.5329 81.3032 47.3609 81.2168 47.2788C81.0699 47.1645 80.8947 47.0903 80.7091 47.0638V46.9335C80.9311 46.9504 81.2806 46.9752 81.4229 46.9752C81.4669 46.9803 81.5115 46.9764 81.5538 46.9636C81.5962 46.9508 81.6353 46.9294 81.6688 46.9009C81.8668 46.712 82.0011 45.8585 82.0675 44.1516H80.9497L80.6838 44.4721L80.0418 44.0108C80.1335 43.9439 80.2319 43.8862 80.3356 43.8388C80.4233 43.1964 80.5177 42.1254 80.5336 41.5989L81.3976 41.797C81.3805 41.8581 81.3412 41.911 81.2871 41.9458C81.233 41.9806 81.1679 41.9949 81.1038 41.9859C81.0653 42.4876 80.9935 43.3359 80.9138 43.9118H81.6435C81.7618 42.9658 81.8495 41.7722 81.8894 40.9735H80.1508L80.079 40.735H81.815L82.1087 40.3559L82.8371 40.9409C82.7918 40.9867 82.7378 41.0233 82.678 41.0486C82.6182 41.0738 82.554 41.0873 82.4889 41.0882C82.465 41.6732 82.3932 42.7026 82.3227 43.5496L82.3387 43.5339L82.9873 44.1099V44.1177L83.095 44.0773ZM82.4051 43.2955C83.2532 42.4472 83.9829 41.0478 84.2594 40.0522L85.2975 40.3402C85.2669 40.4301 85.1792 40.4875 84.9652 40.5044L84.9253 40.5787C85.3533 41.5742 86.3449 42.3651 87.2554 42.7769L87.2395 42.8668C87.1062 42.9098 86.9868 42.9866 86.8934 43.0893C86.8001 43.192 86.7361 43.3171 86.7078 43.4518C85.8677 42.8759 85.2098 41.8882 84.8296 40.7924C84.3139 41.7149 83.5004 42.7469 82.4995 43.3776L82.4051 43.2955ZM86.5031 46.553C86.5031 46.553 86.9789 46.9439 87.2714 47.2202C87.2474 47.3101 87.169 47.3505 87.0574 47.3505H82.5434L82.4796 47.1107H85.1181C85.4301 45.9991 85.6843 44.8728 85.8797 43.7359L86.9098 44.0812C86.8862 44.1378 86.8431 44.1845 86.7879 44.2131C86.7328 44.2417 86.6691 44.2503 86.6081 44.2376C86.2519 45.2422 85.7999 46.3133 85.3161 47.1107H86.0698L86.5031 46.553ZM85.457 42.773C85.457 42.773 85.8451 43.1013 86.083 43.3489C86.0671 43.4388 85.9874 43.4792 85.877 43.4792H83.2851L83.2213 43.2407H85.1074L85.457 42.773ZM84.2049 43.8154C85.7029 45.2722 85.0928 46.7289 84.5133 46.0957C84.5292 45.379 84.2993 44.4812 84.0853 43.848L84.2049 43.8154Z" fill="#2D2D2D"/>
<path d="M97.7394 46.5141C97.7394 46.5141 98.2711 46.935 98.6034 47.2308C98.5795 47.3207 98.501 47.3611 98.3814 47.3611H91.439L91.3672 47.1226H94.5692V45.9004H92.2551L92.1913 45.6619H94.5692V44.4892L95.6326 44.5804C95.6246 44.7029 95.5608 44.7772 95.3668 44.8097V45.658H96.5485L97.0004 45.0821C97.0004 45.0821 97.5068 45.473 97.8324 45.7649C97.8085 45.8561 97.7288 45.8952 97.6184 45.8952H95.3668V47.1226H97.2689L97.7394 46.5141ZM92.513 41.4023C92.5449 41.9535 92.3468 42.3327 92.093 42.5047C91.871 42.6611 91.5387 42.6285 91.443 42.3744C91.4084 42.268 91.4152 42.1528 91.4621 42.0511C91.5089 41.9493 91.5926 41.8681 91.6969 41.8232C91.9893 41.6669 92.2751 41.2225 92.2511 40.7443L92.3707 40.7365C92.4199 40.876 92.4569 41.0195 92.4811 41.1652H95.0491C94.9713 41.1523 94.8978 41.121 94.8351 41.074C94.7552 40.6977 94.5488 40.3586 94.2489 40.111L94.3114 40.0537C95.8174 40.0693 95.6991 41.074 95.1993 41.1652H97.4895L97.9016 40.7287L98.6313 41.461C98.5906 41.4969 98.5429 41.5242 98.4909 41.5413C98.439 41.5583 98.3841 41.5647 98.3296 41.56C98.0981 41.8596 97.8303 42.1304 97.532 42.3666L97.4457 42.3171C97.4842 42.0708 97.532 41.6994 97.556 41.4049L92.513 41.4023ZM92.291 44.0201C92.3755 44.0081 92.4581 43.9858 92.5369 43.9537C93.131 43.7074 93.9073 43.0077 94.3034 42.5386H92.4891L92.4253 42.2988H96.3092L96.7372 41.7776C96.7372 41.7776 97.221 42.1398 97.5214 42.4122C97.5055 42.5021 97.419 42.5425 97.3154 42.5425H94.7554L95.3734 42.88C95.3404 42.9275 95.2922 42.963 95.2364 42.981C95.1807 42.9989 95.1204 42.9982 95.065 42.979C94.4441 43.4109 93.7753 43.7724 93.0712 44.0566C93.9512 44.0488 95.299 44.0162 96.7172 43.9576C96.4867 43.674 96.2324 43.4099 95.9569 43.1679L96.0354 43.1015C98.4053 43.654 98.0292 45.2345 97.2489 44.8058C97.1427 44.5667 97.0089 44.3402 96.8501 44.1309C95.8918 44.295 94.4975 44.5101 92.8625 44.7068C92.8168 44.8038 92.7384 44.8825 92.6406 44.9296L92.291 44.0201Z" fill="#2D2D2D"/>
<path d="M0.133189 53.6713C0.212471 53.8873 0.328424 54.0887 0.476134 54.2668C0.578836 54.3904 0.708661 54.4898 0.855943 54.5575C1.00323 54.6252 1.16416 54.6594 1.32681 54.6577C1.5015 54.6608 1.67129 54.601 1.80401 54.4896C1.87114 54.4314 1.92405 54.3591 1.9588 54.2782C1.99355 54.1972 2.00924 54.1096 2.00472 54.0218C2.00525 53.9339 1.98761 53.8468 1.95289 53.7657C1.91817 53.6847 1.86708 53.6113 1.80268 53.5501C1.62967 53.406 1.44321 53.2782 1.24575 53.1683L0.755247 52.8726C0.626063 52.7969 0.507261 52.7054 0.401691 52.6002C0.246612 52.4452 0.158514 52.2375 0.155775 52.0204C0.15217 51.8906 0.176058 51.7616 0.225935 51.6414C0.275811 51.5212 0.350615 51.4124 0.445565 51.322C0.547984 51.2273 0.668784 51.1539 0.800776 51.106C0.932768 51.0581 1.07322 51.0367 1.21382 51.0431C1.37608 51.0484 1.53637 51.0797 1.68835 51.1356C1.79097 51.1754 1.8968 51.2068 2.00472 51.2295C2.03139 51.2322 2.05833 51.2292 2.08377 51.2209C2.10921 51.2126 2.13255 51.1991 2.15224 51.1812C2.18284 51.1401 2.20414 51.093 2.21471 51.0431H2.33303L2.45929 52.2237H2.32637C2.23156 51.8675 2.08093 51.6191 1.87446 51.4783C1.69687 51.3476 1.48236 51.2738 1.26035 51.2672C1.11181 51.263 0.966308 51.309 0.848285 51.3975C0.790796 51.4414 0.744885 51.4981 0.714358 51.563C0.683832 51.6278 0.669601 51.6989 0.672853 51.7702C0.668902 51.9039 0.716347 52.0341 0.805774 52.135C0.927159 52.2637 1.06844 52.3727 1.22446 52.4582L1.72956 52.7579C1.97877 52.8947 2.20331 53.0708 2.39416 53.2791C2.52342 53.4395 2.59157 53.639 2.58689 53.8433C2.58894 53.982 2.55935 54.1194 2.50025 54.2454C2.44114 54.3715 2.35401 54.4829 2.24528 54.5717C2.001 54.7715 1.68991 54.8755 1.37202 54.8636C1.18171 54.8614 0.993085 54.8283 0.813757 54.7658C0.705435 54.7245 0.593856 54.6918 0.480125 54.6681C0.454551 54.6658 0.428789 54.6701 0.405455 54.6806C0.382121 54.6911 0.362038 54.7075 0.347205 54.7281C0.324209 54.7686 0.308461 54.8126 0.30067 54.8584H0.174402L0.00292969 53.6778L0.133189 53.6713Z" fill="#2D2D2D"/>
<path d="M3.01487 54.7112C3.12541 54.7083 3.23191 54.6698 3.31793 54.6017C3.38008 54.4857 3.4051 54.354 3.38972 54.2238V51.6178C3.3948 51.5413 3.38065 51.4648 3.3485 51.395C3.32192 51.3468 3.25546 51.3233 3.15045 51.3233C3.13009 51.322 3.10967 51.322 3.08931 51.3233L3.02419 51.3324V51.2425L3.32858 51.1578L3.58111 51.0862L3.84695 51.0054V51.0236V52.6863C3.94002 52.5788 4.04578 52.4826 4.16199 52.3996C4.31843 52.294 4.50375 52.2373 4.69367 52.2367C4.82377 52.2261 4.95398 52.256 5.06569 52.3222C5.17741 52.3885 5.26491 52.4876 5.31573 52.6055C5.38134 52.7683 5.41166 52.9427 5.40478 53.1176V54.2225C5.39143 54.3507 5.4154 54.4799 5.4739 54.5952C5.55025 54.6669 5.65133 54.7078 5.75703 54.7099V54.7854H4.53946V54.7099C4.65376 54.7064 4.76403 54.6677 4.8545 54.5991C4.91592 54.4833 4.94047 54.3521 4.92495 54.2225V53.1254C4.9313 52.9785 4.89977 52.8324 4.83324 52.7006C4.79758 52.6442 4.74624 52.5989 4.68527 52.5701C4.6243 52.5412 4.55621 52.53 4.48897 52.5377C4.33409 52.5409 4.1846 52.594 4.06363 52.6889C3.93071 52.7905 3.85893 52.8557 3.85893 52.8869V54.2225C3.85893 54.4245 3.88286 54.5509 3.93204 54.6017C4.02272 54.6677 4.13155 54.7054 4.24438 54.7099V54.7854H3.00293L3.01487 54.7112Z" fill="#2D2D2D"/>
<path d="M6.46346 53.5883C6.79271 53.4107 7.138 53.2633 7.49492 53.1479V52.9173C7.5048 52.7846 7.48578 52.6513 7.4391 52.5264C7.3753 52.4052 7.24238 52.3452 7.04034 52.3452C6.94486 52.3454 6.85102 52.3696 6.76785 52.4156C6.72853 52.4328 6.6951 52.4608 6.67153 52.4961C6.64797 52.5315 6.63525 52.5727 6.63493 52.615C6.63641 52.6522 6.64087 52.6892 6.64823 52.7257C6.65585 52.7578 6.66073 52.7905 6.66284 52.8234C6.66705 52.8648 6.65964 52.9064 6.64136 52.9439C6.62307 52.9813 6.59465 53.0131 6.55919 53.0358C6.51647 53.0602 6.46767 53.0724 6.41829 53.071C6.38179 53.073 6.34532 53.0667 6.31168 53.0527C6.27804 53.0387 6.24813 53.0173 6.22423 52.9902C6.18054 52.9411 6.15646 52.8782 6.15644 52.813C6.16662 52.7347 6.19354 52.6595 6.23546 52.5921C6.27737 52.5247 6.33332 52.4668 6.39966 52.4221C6.60435 52.271 6.85784 52.1974 7.11346 52.2149C7.47633 52.2149 7.72357 52.3283 7.8525 52.5563C7.93133 52.7266 7.96691 52.913 7.95618 53.0997V54.1864C7.95253 54.2592 7.96014 54.3321 7.97877 54.4027C7.98811 54.4348 8.00836 54.4627 8.03617 54.4819C8.06399 54.5011 8.09767 54.5104 8.13161 54.5083C8.16809 54.5095 8.2044 54.5028 8.23796 54.4887C8.28924 54.4624 8.33817 54.4319 8.38418 54.3975V54.5382C8.32817 54.6047 8.26284 54.663 8.19012 54.7115C8.09644 54.7768 7.98471 54.8127 7.86976 54.8145C7.81692 54.8189 7.76378 54.8103 7.71523 54.7893C7.66669 54.7684 7.62432 54.7358 7.59198 54.6946C7.5334 54.6108 7.50103 54.5121 7.49891 54.4105C7.38473 54.5079 7.26196 54.5951 7.13205 54.6711C6.98612 54.7616 6.81813 54.812 6.64557 54.8171C6.48934 54.8188 6.33878 54.7598 6.22689 54.6529C6.16882 54.6 6.12297 54.5356 6.09247 54.4639C6.06198 54.3922 6.04754 54.3149 6.05009 54.2372C6.05522 54.1031 6.09608 53.9726 6.16861 53.8588C6.24113 53.7449 6.34277 53.6517 6.46346 53.5883ZM7.49492 53.2834C7.30947 53.3389 7.13109 53.415 6.96324 53.5101C6.6974 53.6708 6.56448 53.8533 6.56448 54.0574C6.55919 54.1268 6.57189 54.1965 6.60141 54.2598C6.63092 54.3231 6.67629 54.3781 6.73329 54.4196C6.8045 54.4699 6.89012 54.4968 6.97787 54.4965C7.10379 54.496 7.22708 54.4612 7.33409 54.3962C7.38413 54.3723 7.42648 54.3353 7.4565 54.2893C7.48651 54.2433 7.50303 54.1902 7.50423 54.1356L7.49492 53.2834Z" fill="#2D2D2D"/>
<path d="M8.50709 54.7111C8.60778 54.7065 8.70487 54.673 8.78624 54.6147C8.85402 54.5219 8.88301 54.4072 8.8673 54.2941V52.9182C8.87235 52.8359 8.8606 52.7535 8.83274 52.6758C8.81006 52.6399 8.77731 52.6113 8.7384 52.5932C8.69949 52.5752 8.65609 52.5686 8.61343 52.5742H8.56158L8.49512 52.582V52.4882C8.57221 52.4656 8.75433 52.4095 9.04143 52.3201L9.30727 52.2354C9.32057 52.2354 9.32853 52.2354 9.33119 52.2497C9.33294 52.2622 9.33294 52.275 9.33119 52.2875V52.6849C9.45391 52.5668 9.58739 52.46 9.72995 52.3657C9.8659 52.2811 10.0235 52.2359 10.1846 52.2354C10.309 52.2344 10.4306 52.2713 10.5328 52.3409C10.7348 52.479 10.8359 52.7227 10.8359 53.0745V54.3398C10.827 54.4401 10.8558 54.5402 10.9169 54.6212C10.9899 54.6845 11.0855 54.7168 11.1828 54.7111V54.7867H9.98648V54.7111C10.0917 54.7058 10.1924 54.6674 10.2736 54.6017C10.3472 54.4954 10.3805 54.3673 10.368 54.2394V53.0836C10.3742 52.9479 10.3435 52.813 10.2789 52.6927C10.2441 52.6395 10.1948 52.5969 10.1365 52.5697C10.0782 52.5425 10.0134 52.5319 9.94929 52.539C9.82889 52.5424 9.71208 52.58 9.613 52.6471C9.5257 52.7094 9.44348 52.7782 9.36708 52.853V54.3697C9.36097 54.417 9.36593 54.4651 9.38159 54.5103C9.39725 54.5554 9.42319 54.5965 9.45746 54.6303C9.54243 54.6813 9.64104 54.7063 9.7406 54.702V54.7776H8.50709V54.7111Z" fill="#2D2D2D"/>
<path d="M11.8142 53.5879C11.7196 53.4497 11.6701 53.2866 11.672 53.1201C11.6794 52.8937 11.7745 52.6785 11.9378 52.5181C12.0329 52.4211 12.1483 52.3454 12.2762 52.2963C12.404 52.2473 12.5411 52.226 12.6782 52.2341C12.8334 52.2378 12.9866 52.2696 13.1301 52.3279C13.2816 52.3871 13.4429 52.4185 13.606 52.4204H13.7841H13.9582H13.9914V52.6406H13.505C13.5382 52.7162 13.5647 52.7814 13.5834 52.8374C13.6139 52.9341 13.63 53.0346 13.6312 53.1358C13.629 53.2431 13.6042 53.3488 13.5585 53.4463C13.5127 53.5438 13.447 53.6311 13.3654 53.7026C13.2704 53.7913 13.1581 53.8601 13.0351 53.9049C12.9122 53.9497 12.7812 53.9695 12.6503 53.9632C12.5652 53.96 12.4804 53.9517 12.3964 53.9384C12.3419 53.9384 12.2701 53.9827 12.1797 54.0687C12.1101 54.1226 12.0629 54.1995 12.0468 54.285C12.0468 54.3437 12.112 54.3854 12.2435 54.4153C12.338 54.4344 12.4342 54.4435 12.5306 54.4427C12.8606 54.4284 13.191 54.4547 13.5142 54.5209C13.6401 54.5474 13.7521 54.6171 13.8301 54.7175C13.908 54.8178 13.9469 54.9422 13.9396 55.0682C13.9396 55.3535 13.7734 55.5802 13.4425 55.7509C13.1352 55.9169 12.7911 56.0064 12.4403 56.0115C12.1837 56.0249 11.929 55.9622 11.7092 55.8317C11.5284 55.7105 11.4434 55.5855 11.4434 55.4539C11.4446 55.3841 11.4694 55.3168 11.5138 55.2623C11.5995 55.1621 11.6937 55.0692 11.7956 54.9848L11.9803 54.8258L12.0149 54.7932C11.9469 54.7694 11.8822 54.7374 11.8222 54.6981C11.7892 54.6771 11.7618 54.6486 11.7424 54.615C11.723 54.5815 11.712 54.5438 11.7105 54.5052C11.7168 54.4233 11.751 54.3457 11.8076 54.285C11.9344 54.1436 12.0731 54.0129 12.2223 53.8941C12.0533 53.8431 11.9085 53.7345 11.8142 53.5879ZM12.1133 55.6037C12.3102 55.6639 12.5157 55.693 12.722 55.6897C12.9842 55.7 13.2449 55.6467 13.481 55.5346C13.6764 55.4304 13.7735 55.3027 13.7735 55.1502C13.7735 55.0304 13.695 54.9496 13.5369 54.9092C13.3533 54.8788 13.1673 54.8652 12.9812 54.8688L12.7619 54.8623L12.5506 54.8532C12.5094 54.8532 12.4429 54.844 12.3499 54.831C12.2568 54.818 12.1904 54.8076 12.1452 54.7984C12.1226 54.7984 12.0667 54.8558 11.9803 54.9691C11.9021 55.0587 11.8555 55.1707 11.8474 55.2884C11.8479 55.3628 11.8746 55.4347 11.9231 55.492C11.9716 55.5492 12.0387 55.5882 12.1133 55.6024V55.6037ZM13.0052 53.743C13.0669 53.6855 13.1143 53.6147 13.1436 53.5363C13.1729 53.4579 13.1833 53.3739 13.174 53.2908C13.1685 53.0909 13.1233 52.894 13.0411 52.711C13.0107 52.6165 12.9501 52.5342 12.8682 52.4762C12.7863 52.4182 12.6875 52.3877 12.5865 52.3891C12.5038 52.3848 12.422 52.407 12.3534 52.4524C12.2847 52.4978 12.2331 52.5639 12.2063 52.6406C12.1686 52.7456 12.1505 52.8564 12.1531 52.9677C12.1503 53.1771 12.2079 53.3831 12.3193 53.5619C12.3603 53.6394 12.4221 53.7046 12.4979 53.7505C12.5738 53.7963 12.6608 53.8212 12.7499 53.8225C12.842 53.8252 12.9322 53.7967 13.0052 53.7417V53.743Z" fill="#2D2D2D"/>
<path d="M14.2121 54.7112C14.3227 54.7083 14.4292 54.6698 14.5152 54.6017C14.5773 54.4857 14.6024 54.354 14.587 54.2238V51.6178C14.5914 51.5414 14.5773 51.465 14.5458 51.395C14.5179 51.3468 14.4527 51.3233 14.3477 51.3233C14.3274 51.322 14.3069 51.322 14.2866 51.3233L14.2215 51.3324V51.2425L14.5258 51.1578L14.7784 51.0862L15.0442 51.0054V51.0236V52.6863C15.1373 52.5788 15.243 52.4826 15.3593 52.3996C15.5157 52.294 15.701 52.2373 15.8909 52.2367C16.021 52.2263 16.1511 52.2563 16.2628 52.3225C16.3745 52.3887 16.462 52.4877 16.513 52.6055C16.5786 52.7683 16.6089 52.9427 16.602 53.1176V54.2225C16.5887 54.3507 16.6127 54.4799 16.6712 54.5952C16.7475 54.6669 16.8486 54.7078 16.9543 54.7099V54.7854H15.7367V54.7099C15.851 54.7064 15.9613 54.6677 16.0518 54.5991C16.1123 54.483 16.1363 54.352 16.1209 54.2225V53.1254C16.1276 52.9786 16.0965 52.8325 16.0305 52.7006C15.9946 52.6441 15.9431 52.5988 15.8819 52.5699C15.8206 52.5411 15.7523 52.5299 15.6849 52.5377C15.5304 52.5409 15.3814 52.594 15.2609 52.6889C15.128 52.7905 15.0562 52.8557 15.0562 52.8869V54.2225C15.0562 54.4245 15.0801 54.5509 15.1293 54.6017C15.2195 54.6677 15.3279 54.7054 15.4403 54.7099V54.7854H14.2002L14.2121 54.7112Z" fill="#2D2D2D"/>
<path d="M17.6596 53.5883C17.9895 53.411 18.3352 53.2636 18.6924 53.1479V52.9173C18.7022 52.7846 18.6832 52.6513 18.6366 52.5264C18.5728 52.4052 18.4398 52.3452 18.2378 52.3452C18.1445 52.3463 18.0531 52.3705 17.972 52.4156C17.9326 52.4328 17.8992 52.4608 17.8756 52.4961C17.8521 52.5315 17.8394 52.5727 17.839 52.615C17.8405 52.6522 17.845 52.6892 17.8523 52.7257C17.8593 52.758 17.8641 52.7906 17.8669 52.8234C17.8712 52.8648 17.8637 52.9064 17.8455 52.9439C17.8272 52.9813 17.7987 53.0131 17.7633 53.0358C17.7205 53.0602 17.6718 53.0724 17.6224 53.071C17.5859 53.0732 17.5493 53.067 17.5157 53.053C17.482 53.039 17.4521 53.0175 17.4283 52.9902C17.3846 52.9411 17.3606 52.8782 17.3605 52.813C17.3707 52.7347 17.3976 52.6595 17.4396 52.5921C17.4815 52.5247 17.5374 52.4668 17.6038 52.4221C17.8085 52.271 18.0619 52.1974 18.3176 52.2149C18.6804 52.2149 18.9277 52.3283 19.0566 52.5563C19.1354 52.7266 19.171 52.913 19.1603 53.0997V54.1864C19.1566 54.2592 19.1642 54.3321 19.1829 54.4027C19.1919 54.4347 19.2119 54.4626 19.2395 54.4818C19.2671 54.501 19.3006 54.5104 19.3344 54.5083C19.3713 54.5096 19.4081 54.5029 19.4421 54.4887C19.4933 54.4624 19.5423 54.4319 19.5883 54.3975V54.5382C19.5323 54.6047 19.4669 54.663 19.3942 54.7115C19.3004 54.7767 19.1888 54.8126 19.0739 54.8145C19.021 54.8189 18.9679 54.8103 18.9193 54.7893C18.8708 54.7684 18.8284 54.7358 18.7961 54.6946C18.7375 54.6107 18.7047 54.5121 18.7017 54.4105C18.5879 54.5078 18.4656 54.595 18.3362 54.6711C18.1902 54.7616 18.0222 54.812 17.8497 54.8171C17.6934 54.8188 17.5429 54.7598 17.431 54.6529C17.3729 54.6 17.3271 54.5356 17.2966 54.4639C17.2661 54.3922 17.2516 54.3149 17.2542 54.2372C17.2587 54.1039 17.2984 53.974 17.3694 53.8603C17.4405 53.7465 17.5405 53.6528 17.6596 53.5883ZM18.6924 53.2834C18.5069 53.3389 18.3285 53.415 18.1607 53.5101C17.8948 53.6708 17.7597 53.8533 17.7553 54.0574C17.75 54.1268 17.7627 54.1965 17.7922 54.2598C17.8217 54.3231 17.8671 54.3781 17.9241 54.4196C17.9953 54.4699 18.0809 54.4968 18.1687 54.4965C18.2946 54.4958 18.4178 54.4611 18.5249 54.3962C18.575 54.3723 18.6173 54.3353 18.6473 54.2893C18.6773 54.2433 18.6938 54.1902 18.695 54.1356L18.6924 53.2834Z" fill="#2D2D2D"/>
<path d="M19.7104 54.7114C19.844 54.7132 19.9755 54.6789 20.0905 54.6124C20.1424 54.5642 20.169 54.4352 20.169 54.2215V52.9367C20.1734 52.8547 20.1649 52.7725 20.1437 52.693C20.1311 52.6578 20.1068 52.6278 20.0748 52.6077C20.0428 52.5877 20.0048 52.5787 19.9669 52.5823C19.9466 52.5803 19.9261 52.5803 19.9058 52.5823L19.7356 52.6253V52.5458L19.8566 52.508C20.1853 52.4055 20.414 52.3277 20.5425 52.2747C20.575 52.2595 20.6094 52.2485 20.6448 52.2422C20.6462 52.2556 20.6462 52.2691 20.6448 52.2826V54.228C20.6448 54.4339 20.6701 54.5628 20.7219 54.6189C20.8246 54.6879 20.9471 54.723 21.0715 54.7192V54.7948H19.7051L19.7104 54.7114ZM20.157 51.0903C20.1841 51.0631 20.2166 51.0417 20.2525 51.0274C20.2884 51.013 20.3269 51.0061 20.3657 51.0069C20.4041 51.0062 20.4423 51.0131 20.4779 51.0272C20.5135 51.0413 20.5459 51.0624 20.5731 51.089C20.6 51.1151 20.6214 51.1461 20.6359 51.1803C20.6505 51.2145 20.658 51.2513 20.658 51.2884C20.658 51.3254 20.6505 51.3622 20.6359 51.3964C20.6214 51.4306 20.6 51.4617 20.5731 51.4877C20.5171 51.5404 20.4426 51.5697 20.365 51.5697C20.2875 51.5697 20.2129 51.5404 20.157 51.4877C20.13 51.462 20.1087 51.4312 20.0943 51.3972C20.0799 51.3631 20.0728 51.3265 20.0733 51.2897C20.0727 51.2526 20.0799 51.2158 20.0943 51.1816C20.1087 51.1473 20.13 51.1162 20.157 51.0903Z" fill="#2D2D2D"/>
<path d="M22.4092 54.7867V54.6838C22.4729 54.6805 22.5352 54.6645 22.5924 54.6368C22.6496 54.609 22.7003 54.57 22.7415 54.5222C22.8931 54.2856 23.0209 54.0351 23.1229 53.7743L24.3192 51.0522H24.4336L25.8691 54.1964C25.9216 54.3388 25.9989 54.471 26.0977 54.5873C26.1823 54.647 26.2822 54.6822 26.3861 54.689V54.7919H24.924V54.689C25.0343 54.6844 25.1436 54.6669 25.2497 54.6369C25.2988 54.616 25.3228 54.5652 25.3228 54.4844C25.3188 54.4358 25.3095 54.3877 25.2949 54.3411C25.274 54.2677 25.2478 54.1958 25.2164 54.1261L24.9892 53.5879H23.4712C23.3223 53.9515 23.232 54.173 23.2054 54.2525C23.1812 54.3133 23.1669 54.3775 23.1628 54.4427C23.1597 54.4829 23.1692 54.5231 23.1901 54.5578C23.211 54.5926 23.2423 54.6202 23.2798 54.6369C23.3687 54.6657 23.4613 54.682 23.5549 54.6851V54.788L22.4092 54.7867ZM24.8895 53.3625L24.2249 51.8354L23.5603 53.3625H24.8895Z" fill="#2D2D2D"/>
<path d="M26.5079 54.6969C26.6284 54.6975 26.7471 54.6674 26.8522 54.6096C26.8857 54.571 26.9105 54.5258 26.9249 54.477C26.9393 54.4283 26.9431 54.3771 26.9359 54.3269V53.1046C26.9433 52.9749 26.9258 52.8449 26.8841 52.7215C26.8688 52.6852 26.8421 52.6546 26.808 52.634C26.7739 52.6134 26.734 52.6039 26.694 52.6069C26.6692 52.6054 26.6444 52.6054 26.6196 52.6069C26.589 52.6069 26.5558 52.6173 26.5225 52.6251V52.5456L26.8508 52.4349C26.9625 52.3971 27.0396 52.3697 27.0835 52.3528C27.1765 52.3189 27.2735 52.2798 27.3719 52.2368C27.3852 52.2368 27.3932 52.2368 27.3958 52.2498C27.398 52.2689 27.398 52.2881 27.3958 52.3072V52.7515C27.4961 52.6127 27.613 52.4863 27.7441 52.3749C27.841 52.2928 27.9643 52.2467 28.0923 52.2446C28.135 52.2427 28.1776 52.2491 28.2178 52.2635C28.2579 52.2778 28.2948 52.2997 28.3263 52.328C28.3558 52.354 28.3792 52.386 28.3948 52.4218C28.4105 52.4576 28.4179 52.4963 28.4166 52.5352C28.4184 52.6034 28.3943 52.6698 28.3489 52.7215C28.3273 52.7459 28.3004 52.7653 28.2704 52.7783C28.2403 52.7914 28.2076 52.7978 28.1747 52.7971C28.0937 52.793 28.0173 52.759 27.9607 52.702C27.9154 52.6535 27.8552 52.6206 27.7893 52.6082C27.7241 52.6082 27.643 52.659 27.5473 52.7606C27.4608 52.8442 27.41 52.957 27.4051 53.076V54.2982C27.3983 54.3568 27.4047 54.4162 27.424 54.472C27.4433 54.5279 27.475 54.5789 27.5168 54.6213C27.6282 54.6908 27.7605 54.7207 27.8916 54.706V54.796H26.5039L26.5079 54.6969Z" fill="#2D2D2D"/>
<path d="M29.8669 52.2848V52.479H29.2927V54.0426C29.2883 54.1481 29.3009 54.2537 29.3299 54.3554C29.3455 54.4117 29.3804 54.4611 29.4289 54.4951C29.4774 54.529 29.5363 54.5455 29.5958 54.5417C29.6579 54.5429 29.7191 54.5271 29.7726 54.4961C29.8352 54.454 29.8923 54.4045 29.9427 54.3488L30.0158 54.4088L29.9534 54.4896C29.8727 54.6029 29.7656 54.6958 29.641 54.7606C29.5436 54.8102 29.4357 54.837 29.3259 54.8388C29.2297 54.8461 29.1336 54.8223 29.0524 54.771C28.9713 54.7197 28.9096 54.6437 28.8767 54.5547C28.8274 54.4176 28.8052 54.2726 28.8116 54.1273V52.4855H28.5058C28.4976 52.482 28.4904 52.4766 28.4846 52.4699C28.4791 52.4638 28.4762 52.4558 28.4766 52.4477C28.4761 52.4328 28.4808 52.4181 28.4899 52.406C28.5147 52.3811 28.5413 52.358 28.5696 52.337C28.6698 52.261 28.7636 52.1774 28.8501 52.0868C28.9068 52.0225 29.0397 51.8531 29.2489 51.5786C29.2741 51.5786 29.2887 51.5786 29.2927 51.5786C29.2967 51.5786 29.2994 51.5969 29.2994 51.619V52.2848H29.8669Z" fill="#2D2D2D"/>
<path d="M30.1147 54.7114C30.2483 54.7132 30.3798 54.6789 30.4948 54.6124C30.5467 54.5642 30.5733 54.4352 30.5733 54.2215V52.9367C30.5777 52.8547 30.5692 52.7725 30.548 52.693C30.5354 52.6579 30.5111 52.6278 30.4791 52.6078C30.447 52.5877 30.4091 52.5787 30.3712 52.5823C30.3509 52.5803 30.3304 52.5803 30.3101 52.5823L30.1399 52.6253V52.5458L30.2609 52.508C30.5896 52.4055 30.8183 52.3278 30.9468 52.2748C30.9793 52.2595 31.0137 52.2485 31.0491 52.2422C31.0511 52.2556 31.0511 52.2692 31.0491 52.2826V54.228C31.0491 54.4339 31.0744 54.5629 31.1262 54.6189C31.2293 54.6881 31.3523 54.7232 31.4771 54.7192V54.7948H30.1094L30.1147 54.7114ZM30.5626 51.0903C30.5894 51.0631 30.6216 51.0416 30.6573 51.0272C30.693 51.0129 30.7314 51.0059 30.77 51.0069C30.8084 51.0062 30.8466 51.0132 30.8822 51.0273C30.9178 51.0414 30.9502 51.0624 30.9773 51.089C31.0043 51.1151 31.0256 51.1461 31.0402 51.1803C31.0548 51.2146 31.0623 51.2513 31.0623 51.2884C31.0623 51.3255 31.0548 51.3622 31.0402 51.3964C31.0256 51.4306 31.0043 51.4617 30.9773 51.4877C30.9502 51.5144 30.9178 51.5354 30.8822 51.5495C30.8466 51.5636 30.8084 51.5705 30.77 51.5698C30.7315 51.5707 30.6933 51.5639 30.6576 51.5498C30.622 51.5357 30.5896 51.5146 30.5626 51.4877C30.5349 51.4626 30.513 51.4319 30.4983 51.3977C30.4836 51.3636 30.4766 51.3267 30.4776 51.2897C30.477 51.2525 30.4842 51.2156 30.4989 51.1813C30.5135 51.147 30.5352 51.116 30.5626 51.0903Z" fill="#2D2D2D"/>
<path d="M31.7875 54.7114C31.8962 54.7171 32.0039 54.6883 32.0946 54.6293C32.1531 54.5811 32.181 54.4612 32.181 54.2696V52.4741H31.7822V52.3112H32.181C32.1674 51.9726 32.2766 51.6402 32.4893 51.373C32.6914 51.1402 32.9976 51.0234 33.4078 51.0225C33.5761 51.0211 33.7419 51.0624 33.889 51.1424C34.0352 51.2219 34.1083 51.3144 34.1083 51.4238C34.1088 51.4508 34.1036 51.4775 34.093 51.5024C34.0825 51.5272 34.0669 51.5497 34.0472 51.5685C34.0275 51.5886 34.0037 51.6044 33.9774 51.615C33.951 51.6255 33.9227 51.6305 33.8943 51.6297C33.8079 51.6297 33.7096 51.5515 33.5992 51.3978C33.5641 51.333 33.513 51.2778 33.4505 51.2373C33.3881 51.1968 33.3163 51.1722 33.2417 51.1658C33.1351 51.1604 33.029 51.1834 32.9346 51.2323C32.8433 51.2945 32.7711 51.3802 32.7259 51.4799C32.6905 51.5709 32.6668 51.6658 32.6555 51.7626C32.6449 51.8616 32.6396 52.0441 32.6396 52.3112H33.4371H33.6644C33.7481 52.3112 33.8186 52.3034 33.8771 52.2969L34.01 52.2721C34.0537 52.2619 34.0981 52.2545 34.1429 52.2499C34.1534 52.2504 34.1633 52.2545 34.1708 52.2617C34.1762 52.2668 34.1804 52.2732 34.1829 52.2802C34.1855 52.2872 34.1863 52.2947 34.1854 52.3021C34.1854 52.3177 34.1854 52.3711 34.1735 52.4584V52.5718C34.1735 52.6126 34.1735 52.6517 34.1735 52.6891C34.1735 52.7268 34.1735 52.7659 34.1735 52.805V54.2514C34.1735 54.4416 34.2014 54.5615 34.2559 54.6123C34.347 54.6757 34.4552 54.7115 34.5669 54.7153V54.7908H33.3015V54.7101C33.4209 54.7131 33.5382 54.6789 33.6365 54.6123C33.6925 54.5005 33.7146 54.3752 33.7003 54.2514V52.7855C33.7067 52.6997 33.6812 52.6145 33.6285 52.5457C33.5558 52.5024 33.4714 52.4819 33.3866 52.4871L33.1912 52.4793H32.6422V54.3035C32.6347 54.3649 32.6417 54.4271 32.6627 54.4854C32.6836 54.5437 32.718 54.5965 32.7632 54.6397C32.8527 54.6883 32.9532 54.7143 33.0556 54.7153V54.7908H31.7902L31.7875 54.7114Z" fill="#2D2D2D"/>
<path d="M36.8442 52.4077C36.9155 52.4457 36.9761 52.5005 37.0204 52.5672C37.0647 52.6338 37.0914 52.7102 37.0981 52.7895C37.0972 52.8503 37.0746 52.9088 37.0343 52.955C37.0091 52.982 36.9779 53.003 36.9431 53.0163C36.9083 53.0296 36.8708 53.0349 36.8336 53.0319C36.7696 53.0329 36.7076 53.0096 36.6608 52.9667C36.6067 52.9155 36.5693 52.8498 36.5531 52.7778L36.5186 52.6475C36.5037 52.5667 36.4587 52.4943 36.3923 52.4442C36.3178 52.4035 36.233 52.384 36.1477 52.3882C36.0422 52.3878 35.9381 52.4121 35.844 52.459C35.7499 52.5059 35.6686 52.5741 35.6067 52.6579C35.4507 52.8645 35.3727 53.1178 35.3861 53.3746C35.3824 53.6391 35.4679 53.8974 35.6294 54.1095C35.7023 54.2132 35.8007 54.2974 35.9154 54.3543C36.0301 54.4112 36.1575 54.439 36.286 54.4352C36.4763 54.437 36.6609 54.3713 36.8057 54.2502C36.9175 54.1509 37.0158 54.0379 37.0981 53.914L37.1765 53.9596C37.0905 54.1483 36.9773 54.3238 36.8402 54.4808C36.7433 54.5934 36.6226 54.684 36.4866 54.7465C36.3505 54.809 36.2023 54.842 36.052 54.8431C35.9063 54.8428 35.7622 54.8131 35.6287 54.756C35.4952 54.6988 35.375 54.6154 35.2758 54.5108C35.1603 54.3901 35.071 54.2478 35.0129 54.0924C34.9549 53.937 34.9295 53.7718 34.9382 53.6065C34.9309 53.2508 35.0626 52.9059 35.3064 52.6423C35.4216 52.512 35.5648 52.4083 35.7256 52.3385C35.8864 52.2687 36.061 52.2345 36.2368 52.2383C36.4523 52.2314 36.6647 52.2906 36.8442 52.4077Z" fill="#2D2D2D"/>
<path d="M37.476 54.7114C37.6092 54.7135 37.7404 54.6792 37.8549 54.6124C37.908 54.5642 37.9346 54.4352 37.9346 54.2215V52.9367C37.9383 52.8547 37.9298 52.7726 37.9093 52.693C37.8965 52.6578 37.872 52.6277 37.8397 52.6076C37.8075 52.5876 37.7693 52.5787 37.7313 52.5823C37.7114 52.5804 37.6913 52.5804 37.6714 52.5823L37.5013 52.6253V52.5458L37.6223 52.508C37.951 52.4055 38.1796 52.3278 38.3081 52.2748C38.3402 52.2598 38.3742 52.2488 38.4091 52.2422C38.4111 52.2556 38.4111 52.2692 38.4091 52.2826V54.228C38.4091 54.4339 38.4357 54.5629 38.4876 54.6189C38.5901 54.6883 38.7126 54.7235 38.8371 54.7192V54.7948H37.4707L37.476 54.7114ZM37.9227 51.0903C37.9497 51.063 37.9821 51.0415 38.0181 51.0272C38.054 51.0128 38.0926 51.0059 38.1313 51.0069C38.1696 51.0063 38.2075 51.0133 38.2429 51.0274C38.2783 51.0415 38.3104 51.0625 38.3373 51.089C38.3646 51.1149 38.3863 51.1459 38.4011 51.1801C38.4159 51.2144 38.4235 51.2512 38.4235 51.2884C38.4235 51.3256 38.4159 51.3624 38.4011 51.3966C38.3863 51.4309 38.3646 51.4619 38.3373 51.4877C38.2816 51.5403 38.2073 51.5697 38.13 51.5697C38.0527 51.5697 37.9784 51.5403 37.9227 51.4877C37.8957 51.4621 37.8744 51.4312 37.86 51.3972C37.8456 51.3631 37.8384 51.3265 37.8389 51.2897C37.8384 51.2526 37.8455 51.2158 37.8599 51.1816C37.8743 51.1473 37.8956 51.1163 37.9227 51.0903Z" fill="#2D2D2D"/>
<path d="M39.582 53.5883C39.9113 53.4107 40.2566 53.2633 40.6135 53.1479V52.9173C40.6234 52.7846 40.6043 52.6513 40.5576 52.5264C40.4938 52.4052 40.3609 52.3452 40.1589 52.3452C40.0629 52.3452 39.9687 52.3695 39.8851 52.4156C39.8457 52.4328 39.8123 52.4608 39.7887 52.4961C39.7652 52.5315 39.7525 52.5727 39.7521 52.615C39.7536 52.6522 39.7585 52.6893 39.7668 52.7257C39.7735 52.758 39.778 52.7906 39.7801 52.8234C39.7843 52.8648 39.7768 52.9064 39.7585 52.9439C39.7403 52.9813 39.7118 53.0131 39.6764 53.0358C39.6337 53.0602 39.5849 53.0724 39.5355 53.071C39.499 53.073 39.4625 53.0667 39.4289 53.0527C39.3952 53.0387 39.3653 53.0173 39.3414 52.9902C39.2977 52.9411 39.2736 52.8782 39.2736 52.813C39.2838 52.7347 39.3107 52.6595 39.3526 52.5921C39.3946 52.5247 39.4505 52.4668 39.5169 52.4221C39.7216 52.271 39.975 52.1974 40.2306 52.2149C40.5935 52.2149 40.8408 52.3283 40.9697 52.5563C41.0485 52.7266 41.0841 52.913 41.0734 53.0997V54.1864C41.0697 54.2592 41.0773 54.3321 41.096 54.4027C41.1053 54.4348 41.1256 54.4627 41.1534 54.4819C41.1812 54.5011 41.2149 54.5104 41.2488 54.5083C41.2853 54.5095 41.3216 54.5028 41.3551 54.4887C41.4064 54.4624 41.4554 54.4319 41.5014 54.3975V54.5382C41.4454 54.6047 41.38 54.663 41.3073 54.7115C41.2136 54.7768 41.1019 54.8127 40.987 54.8145C40.9341 54.8189 40.881 54.8103 40.8325 54.7893C40.7839 54.7684 40.7415 54.7358 40.7092 54.6946C40.6506 54.6108 40.6182 54.5121 40.6161 54.4105C40.5021 54.5075 40.3798 54.5947 40.2506 54.6711C40.1041 54.7614 39.9357 54.8118 39.7628 54.8171C39.6065 54.8188 39.456 54.7598 39.3441 54.6529C39.286 54.6 39.2402 54.5356 39.2097 54.4639C39.1792 54.3922 39.1647 54.3149 39.1673 54.2372C39.1725 54.103 39.2136 53.9724 39.2864 53.8586C39.3591 53.7447 39.4611 53.6515 39.582 53.5883ZM40.6135 53.2834C40.428 53.3389 40.2496 53.415 40.0818 53.5101C39.8159 53.6708 39.683 53.8533 39.683 54.0574C39.6778 54.1135 39.6847 54.17 39.7031 54.2233C39.7216 54.2767 39.7513 54.3256 39.7902 54.367C39.8292 54.4084 39.8766 54.4413 39.9293 54.4636C39.982 54.4859 40.039 54.4971 40.0964 54.4965C40.2219 54.4958 40.3447 54.4611 40.4513 54.3962C40.5015 54.3725 40.5441 54.3356 40.5741 54.2896C40.6042 54.2435 40.6206 54.1902 40.6215 54.1356L40.6135 53.2834Z" fill="#2D2D2D"/>
<path d="M41.6373 54.7113C41.7629 54.71 41.8857 54.6749 41.9922 54.6097C42.0283 54.5684 42.0552 54.5202 42.0713 54.4681C42.0873 54.4161 42.0921 54.3613 42.0853 54.3074V51.6622C42.0902 51.5786 42.0798 51.4947 42.0547 51.4147C42.0323 51.3757 41.9987 51.3441 41.958 51.3239C41.9173 51.3037 41.8713 51.2958 41.8261 51.3013C41.7975 51.3015 41.7691 51.3041 41.741 51.3091C41.7091 51.3091 41.6705 51.3234 41.624 51.3339V51.2427C41.8766 51.1788 42.1823 51.0915 42.5385 50.982C42.5438 50.9815 42.549 50.9828 42.5534 50.9857C42.5577 50.9885 42.5609 50.9928 42.5624 50.9977C42.5646 51.0215 42.5646 51.0455 42.5624 51.0693V54.3178C42.5547 54.3715 42.5582 54.4262 42.5726 54.4786C42.587 54.531 42.612 54.58 42.6462 54.6227C42.7522 54.6833 42.8731 54.714 42.9958 54.7113V54.7869H41.6333L41.6373 54.7113Z" fill="#2D2D2D"/>
<path d="M44.6533 54.6839C44.8115 54.6873 44.9681 54.6524 45.1093 54.5823C45.1784 54.5314 45.2129 54.3998 45.2129 54.1913V51.7182C45.2129 51.5149 45.1784 51.3833 45.1093 51.3273C44.9707 51.2503 44.8124 51.2141 44.6533 51.2231V51.1123H46.3574V51.2152C46.1234 51.2257 45.9706 51.2609 45.9015 51.3195C45.8323 51.3781 45.7978 51.5097 45.7978 51.7104V54.1783C45.7978 54.392 45.8323 54.5236 45.9015 54.5692C46.0425 54.6396 46.1992 54.6745 46.3574 54.6709V54.7738H44.6533V54.6839Z" fill="#2D2D2D"/>
<path d="M46.5819 54.7111C46.683 54.7067 46.7806 54.6732 46.8624 54.6147C46.929 54.5214 46.9574 54.407 46.9421 54.2941V52.9182C46.9474 52.836 46.9361 52.7536 46.9089 52.6758C46.8862 52.6399 46.8535 52.6113 46.8145 52.5932C46.7756 52.5752 46.7322 52.5686 46.6896 52.5742H46.6377L46.5713 52.582V52.4882C46.6484 52.466 46.8371 52.41 47.1162 52.3201L47.3821 52.2354C47.3954 52.2354 47.4033 52.2354 47.406 52.2497C47.4077 52.2622 47.4077 52.275 47.406 52.2875V52.6849C47.5287 52.5668 47.6622 52.4599 47.8048 52.3657C47.9406 52.2809 48.0983 52.2357 48.2594 52.2354C48.3838 52.2344 48.5054 52.2713 48.6076 52.3409C48.8096 52.479 48.9107 52.7227 48.9107 53.0745V54.3398C48.9011 54.4402 48.9301 54.5405 48.9918 54.6212C49.0277 54.6528 49.0698 54.677 49.1154 54.6924C49.1611 54.7079 49.2094 54.7142 49.2576 54.7111V54.7867H48.0613V54.7111C48.1665 54.7058 48.2672 54.6674 48.3484 54.6017C48.4167 54.4944 48.4454 54.3675 48.4295 54.242V53.0862C48.435 52.9506 48.4042 52.8159 48.3404 52.6953C48.3054 52.642 48.2558 52.5993 48.1974 52.5722C48.1389 52.545 48.0738 52.5344 48.0095 52.5416C47.8895 52.545 47.7731 52.5826 47.6745 52.6497C47.5867 52.7113 47.5044 52.7802 47.4286 52.8556V54.3723C47.4223 54.4195 47.4271 54.4675 47.4425 54.5127C47.4579 54.5578 47.4836 54.599 47.5177 54.6329C47.6031 54.684 47.7021 54.7089 47.8021 54.7046V54.7802H46.5726L46.5819 54.7111Z" fill="#2D2D2D"/>
<path d="M50.8238 52.285V52.4792H50.2509L50.2443 54.0428C50.2404 54.1483 50.253 54.2537 50.2815 54.3555C50.2983 54.4112 50.3336 54.4597 50.3818 54.4935C50.4299 54.5272 50.4882 54.5443 50.5473 54.5419C50.609 54.5433 50.6699 54.5275 50.7228 54.4963C50.7854 54.4542 50.8425 54.4047 50.8929 54.349L50.966 54.409L50.9049 54.4897C50.8243 54.6016 50.7182 54.6935 50.5952 54.7582C50.4976 54.8075 50.3899 54.8342 50.2802 54.8364C50.1837 54.8438 50.0874 54.82 50.006 54.7687C49.9247 54.7174 49.8627 54.6414 49.8295 54.5523C49.7815 54.4149 49.7598 54.27 49.7657 54.1249V52.4831H49.4587C49.4509 52.4789 49.4438 52.4736 49.4374 52.4675C49.4329 52.4609 49.4306 52.4532 49.4308 52.4453C49.4299 52.4305 49.4341 52.4158 49.4428 52.4036C49.4685 52.3792 49.4956 52.3561 49.5238 52.3346C49.6233 52.2583 49.7166 52.1747 49.803 52.0844C49.8597 52.0201 49.9926 51.8507 50.2017 51.5762C50.2162 51.5729 50.2312 51.5729 50.2456 51.5762C50.2516 51.5888 50.2539 51.6028 50.2522 51.6166V52.285H50.8238Z" fill="#2D2D2D"/>
<path d="M52.9724 52.5103C53.0743 52.6066 53.1537 52.7235 53.2051 52.8529C53.2565 52.9822 53.2787 53.121 53.2702 53.2595H51.485C51.5036 53.6778 51.602 53.9814 51.7801 54.1716C51.8582 54.2612 51.9553 54.3332 52.0645 54.3824C52.1737 54.4317 52.2926 54.4571 52.4128 54.457C52.5908 54.4633 52.7658 54.411 52.9099 54.3085C53.061 54.1927 53.1882 54.0499 53.2848 53.8876L53.3831 53.9201C53.2961 54.1648 53.1475 54.3839 52.9512 54.5573C52.7427 54.7519 52.464 54.8573 52.1762 54.8505C52.0176 54.8568 51.8598 54.8244 51.7172 54.7562C51.5745 54.6879 51.4513 54.586 51.3587 54.4596C51.1673 54.2027 51.0665 53.8916 51.0716 53.5735C51.0639 53.2312 51.1824 52.8977 51.4053 52.6341C51.5102 52.5076 51.6434 52.4066 51.7947 52.3388C51.9459 52.271 52.111 52.2382 52.2772 52.2432C52.5353 52.2416 52.7841 52.3372 52.9724 52.5103ZM51.6246 52.7175C51.5576 52.8314 51.5126 52.9564 51.4917 53.0862H52.6787C52.6692 52.9463 52.6331 52.8093 52.5723 52.6823C52.5262 52.6039 52.4584 52.54 52.3768 52.4978C52.2952 52.4556 52.2031 52.4369 52.1111 52.4438C52.0122 52.4415 51.9146 52.4658 51.8288 52.514C51.7431 52.5623 51.6724 52.6326 51.6246 52.7175Z" fill="#2D2D2D"/>
<path d="M53.6334 54.7114C53.7589 54.7097 53.8816 54.6746 53.9883 54.6098C54.0244 54.5685 54.0513 54.5203 54.0674 54.4683C54.0834 54.4162 54.0882 54.3615 54.0814 54.3075V51.6624C54.0867 51.5786 54.0759 51.4946 54.0494 51.4148C54.0275 51.3758 53.9941 51.3441 53.9536 51.3239C53.913 51.3037 53.8673 51.2959 53.8222 51.3014C53.7932 51.3017 53.7643 51.3043 53.7358 51.3092C53.7052 51.3092 53.6666 51.3236 53.6201 51.334V51.2428C53.8727 51.1789 54.1771 51.0916 54.5333 50.9822C54.5386 50.9814 54.5439 50.9825 54.5484 50.9854C54.5528 50.9883 54.5559 50.9927 54.5572 50.9978C54.5596 51.0216 54.5596 51.0457 54.5572 51.0695V54.3179C54.5495 54.3716 54.5529 54.4264 54.5673 54.4788C54.5817 54.5312 54.6068 54.5802 54.641 54.6228C54.7465 54.6832 54.867 54.7138 54.9892 54.7114V54.787H53.6334V54.7114Z" fill="#2D2D2D"/>
<path d="M55.234 54.7114C55.3595 54.7097 55.4822 54.6746 55.5889 54.6098C55.625 54.5685 55.6519 54.5203 55.6679 54.4683C55.684 54.4162 55.6887 54.3615 55.6819 54.3075V51.6624C55.6873 51.5786 55.6765 51.4946 55.65 51.4148C55.6281 51.3758 55.5947 51.3441 55.5541 51.3239C55.5136 51.3037 55.4679 51.2959 55.4227 51.3014C55.3938 51.3017 55.3649 51.3043 55.3364 51.3092C55.3058 51.3092 55.2672 51.3236 55.2207 51.334V51.2428C55.4733 51.1789 55.7777 51.0916 56.1339 50.9822C56.1391 50.9814 56.1445 50.9825 56.1489 50.9854C56.1534 50.9883 56.1565 50.9927 56.1578 50.9978C56.1599 51.0217 56.1599 51.0456 56.1578 51.0695V54.3179C56.1502 54.3717 56.1538 54.4265 56.1684 54.4789C56.183 54.5313 56.2084 54.5803 56.2429 54.6228C56.3484 54.6832 56.4689 54.7138 56.5911 54.7114V54.787H55.23L55.234 54.7114Z" fill="#2D2D2D"/>
<path d="M56.8286 54.7114C56.9621 54.7132 57.0936 54.6789 57.2087 54.6124C57.2605 54.5642 57.2871 54.4352 57.2871 54.2215V52.9367C57.2916 52.8547 57.2831 52.7725 57.2619 52.693C57.2493 52.6578 57.225 52.6278 57.193 52.6077C57.1609 52.5877 57.1229 52.5787 57.0851 52.5823C57.0648 52.5803 57.0443 52.5803 57.024 52.5823L56.8538 52.6253V52.5458L56.9748 52.508C57.3035 52.4055 57.5322 52.3277 57.6606 52.2747C57.6931 52.2595 57.7276 52.2485 57.763 52.2422C57.7644 52.2556 57.7644 52.2691 57.763 52.2826V54.228C57.763 54.4339 57.7882 54.5628 57.8401 54.6189C57.9428 54.6879 58.0652 54.723 58.1897 54.7192V54.7948H56.8232L56.8286 54.7114ZM57.2752 51.0903C57.3023 51.0631 57.3348 51.0417 57.3707 51.0274C57.4066 51.013 57.4451 51.0061 57.4839 51.0069C57.5223 51.0062 57.5604 51.0131 57.5961 51.0272C57.6317 51.0413 57.6641 51.0624 57.6912 51.089C57.7181 51.1151 57.7395 51.1461 57.7541 51.1803C57.7687 51.2145 57.7762 51.2513 57.7762 51.2884C57.7762 51.3254 57.7687 51.3622 57.7541 51.3964C57.7395 51.4306 57.7181 51.4617 57.6912 51.4877C57.6353 51.5404 57.5607 51.5697 57.4832 51.5697C57.4057 51.5697 57.3311 51.5404 57.2752 51.4877C57.2482 51.462 57.2269 51.4312 57.2125 51.3972C57.1981 51.3631 57.1909 51.3265 57.1914 51.2897C57.1909 51.2526 57.198 51.2158 57.2124 51.1816C57.2268 51.1473 57.2482 51.1162 57.2752 51.0903Z" fill="#2D2D2D"/>
<path d="M58.8494 53.5879C58.7548 53.4497 58.7052 53.2866 58.7071 53.1201C58.7146 52.8937 58.8096 52.6785 58.973 52.5181C59.068 52.4211 59.1835 52.3454 59.3113 52.2963C59.4391 52.2473 59.5763 52.226 59.7134 52.2341C59.8686 52.2378 60.0218 52.2696 60.1653 52.3279C60.3168 52.3871 60.4781 52.4185 60.6411 52.4204H60.8193H60.9934H61.0266V52.6406H60.5401C60.5733 52.7162 60.5999 52.7814 60.6185 52.8374C60.6491 52.9341 60.6652 53.0346 60.6664 53.1358C60.6641 53.2431 60.6394 53.3488 60.5937 53.4463C60.5479 53.5438 60.4822 53.6311 60.4005 53.7026C60.3056 53.7913 60.1932 53.8601 60.0703 53.9049C59.9474 53.9497 59.8164 53.9695 59.6854 53.9632C59.6004 53.96 59.5156 53.9517 59.4316 53.9384C59.3771 53.9384 59.2986 53.9827 59.2149 54.0687C59.1453 54.1226 59.098 54.1995 59.082 54.285C59.082 54.3437 59.1471 54.3854 59.2787 54.4153C59.3731 54.4344 59.4694 54.4435 59.5658 54.4427C59.8957 54.4284 60.2262 54.4547 60.5494 54.5209C60.6752 54.5474 60.7872 54.6171 60.8652 54.7175C60.9432 54.8178 60.9821 54.9422 60.9748 55.0682C60.9748 55.3535 60.8086 55.5802 60.4776 55.7509C60.1704 55.9169 59.8262 56.0064 59.4754 56.0115C59.2189 56.0247 58.9642 55.9621 58.7444 55.8317C58.5636 55.7105 58.4785 55.5855 58.4785 55.4539C58.4797 55.3841 58.5045 55.3168 58.549 55.2623C58.6346 55.1621 58.7289 55.0692 58.8308 54.9848L59.0155 54.8258L59.0501 54.7932C58.9821 54.7694 58.9174 54.7374 58.8574 54.6981C58.8244 54.6771 58.797 54.6486 58.7776 54.615C58.7581 54.5815 58.7472 54.5438 58.7457 54.5052C58.752 54.4233 58.7862 54.3457 58.8427 54.285C58.9696 54.1436 59.1083 54.0129 59.2574 53.8941C59.0885 53.8431 58.9437 53.7345 58.8494 53.5879ZM59.1484 55.6037C59.3454 55.6639 59.5509 55.693 59.7572 55.6897C60.0194 55.7 60.2801 55.6467 60.5162 55.5346C60.7116 55.4304 60.8086 55.3027 60.8086 55.1502C60.8086 55.0304 60.7302 54.9496 60.572 54.9092C60.3885 54.8788 60.2025 54.8652 60.0164 54.8688L59.7971 54.8623L59.5858 54.8532C59.5445 54.8532 59.4781 54.844 59.385 54.831C59.292 54.818 59.2255 54.8076 59.1803 54.7984C59.1577 54.7984 59.1019 54.8558 59.0155 54.9691C58.9373 55.0587 58.8907 55.1707 58.8826 55.2884C58.8831 55.363 58.91 55.435 58.9588 55.4923C59.0075 55.5496 59.075 55.5885 59.1498 55.6024L59.1484 55.6037ZM60.0403 53.743C60.1021 53.6855 60.1495 53.6147 60.1788 53.5363C60.208 53.4579 60.2184 53.3739 60.2091 53.2908C60.2036 53.0909 60.1585 52.894 60.0762 52.711C60.0459 52.6165 59.9853 52.5342 59.9034 52.4762C59.8215 52.4182 59.7227 52.3877 59.6216 52.3891C59.539 52.3848 59.4571 52.407 59.3885 52.4524C59.3199 52.4978 59.2683 52.5639 59.2415 52.6406C59.2037 52.7456 59.1857 52.8564 59.1883 52.9677C59.1855 53.1771 59.2431 53.3831 59.3545 53.5619C59.3955 53.6394 59.4573 53.7046 59.5331 53.7505C59.6089 53.7963 59.696 53.8212 59.7851 53.8225C59.8772 53.8252 59.9673 53.7967 60.0403 53.7417V53.743Z" fill="#2D2D2D"/>
<path d="M63.2106 52.5103C63.313 52.6064 63.3928 52.7232 63.4445 52.8526C63.4961 52.982 63.5184 53.1209 63.5097 53.2596H61.7233C61.7419 53.6778 61.8402 53.9814 62.0184 54.1717C62.0965 54.2612 62.1936 54.3331 62.3028 54.3824C62.412 54.4316 62.5308 54.4571 62.6511 54.457C62.8294 54.4626 63.0046 54.4104 63.1495 54.3085C63.2998 54.1924 63.4264 54.0496 63.523 53.8876L63.6214 53.9202C63.5343 54.1648 63.3857 54.384 63.1894 54.5574C63.0862 54.6538 62.9646 54.7293 62.8317 54.7796C62.6987 54.8299 62.5569 54.854 62.4145 54.8506C62.256 54.857 62.0984 54.8246 61.9559 54.7564C61.8134 54.6881 61.6905 54.5862 61.5983 54.4597C61.4059 54.2032 61.3046 53.8919 61.3099 53.5736C61.3027 53.2311 61.4216 52.8976 61.6448 52.6341C61.7496 52.5074 61.8828 52.4062 62.034 52.3384C62.1853 52.2706 62.3506 52.238 62.5168 52.2432C62.7745 52.2416 63.0229 52.3373 63.2106 52.5103ZM61.8641 52.7175C61.7965 52.8311 61.7514 52.9562 61.7312 53.0863H62.9182C62.9094 52.9462 62.8733 52.8091 62.8119 52.6823C62.7659 52.6039 62.6981 52.5398 62.6165 52.4976C62.5349 52.4554 62.4427 52.4368 62.3507 52.4439C62.2516 52.4405 62.1536 52.4643 62.0676 52.5127C61.9817 52.561 61.9112 52.632 61.8641 52.7175Z" fill="#2D2D2D"/>
<path d="M63.8576 54.7111C63.9583 54.7065 64.0554 54.673 64.1368 54.6147C64.2046 54.5219 64.2336 54.4072 64.2179 54.2941V52.9182C64.2229 52.8359 64.2112 52.7535 64.1833 52.6758C64.1609 52.6397 64.1282 52.6108 64.0892 52.5928C64.0502 52.5747 64.0067 52.5682 63.964 52.5742H63.9122L63.8457 52.582V52.4882C63.9228 52.4656 64.1049 52.4095 64.392 52.3201L64.6578 52.2354C64.6711 52.2354 64.6791 52.2354 64.6818 52.2497C64.6835 52.2622 64.6835 52.275 64.6818 52.2875V52.6849C64.8048 52.5671 64.9382 52.4603 65.0805 52.3657C65.2165 52.2811 65.3741 52.2359 65.5351 52.2354C65.6595 52.2344 65.7812 52.2713 65.8833 52.3409C66.0854 52.479 66.1864 52.7227 66.1864 53.0745V54.3398C66.1775 54.4401 66.2064 54.5402 66.2675 54.6212C66.3405 54.6845 66.4361 54.7168 66.5333 54.7111V54.7867H65.3371V54.7111C65.4423 54.7058 65.5429 54.6674 65.6242 54.6017C65.6925 54.4944 65.7211 54.3675 65.7053 54.242V53.0862C65.7115 52.9505 65.6808 52.8156 65.6162 52.6953C65.5813 52.6421 65.532 52.5995 65.4738 52.5723C65.4155 52.5451 65.3506 52.5345 65.2865 52.5416C65.1661 52.545 65.0493 52.5826 64.9502 52.6497C64.863 52.712 64.7808 52.7808 64.7044 52.8556V54.3723C64.6983 54.4196 64.7032 54.4677 64.7189 54.5129C64.7345 54.558 64.7605 54.5991 64.7947 54.6329C64.8801 54.6841 64.9792 54.7091 65.0792 54.7046V54.7802H63.8497L63.8576 54.7111Z" fill="#2D2D2D"/>
<path d="M68.671 52.4075C68.7426 52.4452 68.8035 52.4999 68.848 52.5666C68.8926 52.6333 68.9195 52.7098 68.9262 52.7893C68.9257 52.8503 68.9025 52.9092 68.8611 52.9547C68.8362 52.9819 68.8052 53.0029 68.7706 53.0163C68.736 53.0296 68.6987 53.0349 68.6617 53.0316C68.5976 53.0327 68.5357 53.0093 68.4889 52.9665C68.4339 52.9157 68.3959 52.8499 68.3799 52.7775L68.3466 52.6472C68.33 52.5655 68.2826 52.4929 68.2137 52.444C68.1391 52.4034 68.0544 52.384 67.9692 52.3879C67.8635 52.388 67.7593 52.4124 67.6651 52.4593C67.5709 52.5061 67.4893 52.5741 67.4268 52.6577C67.2714 52.8645 67.1934 53.1177 67.2062 53.3743C67.2031 53.6388 67.2885 53.8969 67.4494 54.1092C67.5225 54.2129 67.6209 54.297 67.7355 54.3539C67.8502 54.4108 67.9776 54.4386 68.106 54.435C68.2967 54.4363 68.4816 54.3707 68.6271 54.25C68.7389 54.1507 68.8372 54.0377 68.9195 53.9138L68.998 53.9594C68.912 54.1484 68.7983 54.324 68.6603 54.4806C68.5637 54.5932 68.4434 54.6839 68.3075 54.7465C68.1716 54.809 68.0235 54.8419 67.8734 54.8428C67.7277 54.8425 67.5836 54.8129 67.4501 54.7557C67.3166 54.6986 67.1965 54.6151 67.0972 54.5106C66.9815 54.39 66.892 54.2477 66.8339 54.0923C66.7759 53.9369 66.7506 53.7715 66.7596 53.6063C66.7523 53.2506 66.884 52.9056 67.1278 52.642C67.243 52.5118 67.3862 52.408 67.547 52.3382C67.7078 52.2684 67.8824 52.2342 68.0582 52.2381C68.2756 52.2297 68.4901 52.289 68.671 52.4075Z" fill="#2D2D2D"/>
<path d="M71.2039 52.5103C71.3058 52.6066 71.3852 52.7235 71.4366 52.8529C71.488 52.9822 71.5102 53.121 71.5016 53.2595H69.7165C69.7351 53.6778 69.8335 53.9814 70.0116 54.1716C70.0897 54.2612 70.1867 54.3332 70.2959 54.3824C70.4052 54.4317 70.524 54.4571 70.6443 54.457C70.8222 54.4633 70.9972 54.411 71.1414 54.3085C71.2924 54.1927 71.4196 54.0499 71.5162 53.8876L71.6146 53.9201C71.5275 54.1648 71.3789 54.3839 71.1826 54.5573C70.9741 54.7519 70.6954 54.8573 70.4077 54.8505C70.249 54.8568 70.0913 54.8244 69.9486 54.7562C69.8059 54.6879 69.6828 54.586 69.5902 54.4596C69.3988 54.2027 69.298 53.8916 69.3031 53.5735C69.2954 53.2312 69.4138 52.8977 69.6367 52.6341C69.7416 52.5076 69.8749 52.4066 70.0261 52.3388C70.1774 52.271 70.3425 52.2382 70.5087 52.2432C70.7668 52.2416 71.0156 52.3372 71.2039 52.5103ZM69.8561 52.7175C69.7891 52.8314 69.7441 52.9564 69.7231 53.0862H70.9101C70.9006 52.9463 70.8646 52.8093 70.8038 52.6823C70.7577 52.6039 70.6899 52.54 70.6083 52.4978C70.5267 52.4556 70.4345 52.4369 70.3425 52.4438C70.2437 52.4415 70.1461 52.4658 70.0603 52.514C69.9745 52.5623 69.9039 52.6326 69.8561 52.7175Z" fill="#2D2D2D"/>
<path d="M73.2508 54.6839C73.3954 54.6825 73.5373 54.6448 73.6628 54.5744C73.7266 54.5236 73.7572 54.3933 73.7572 54.1835V51.7182C73.7572 51.5215 73.7266 51.3925 73.6642 51.3273C73.5419 51.2481 73.3972 51.2089 73.2508 51.2152V51.1123H74.8764V51.2152C74.7279 51.2092 74.5805 51.2439 74.4511 51.3156C74.378 51.3716 74.3421 51.4915 74.3421 51.6752V54.3399C74.3391 54.3902 74.3507 54.4403 74.3753 54.4845C74.3925 54.5053 74.4141 54.522 74.4387 54.5335C74.4633 54.545 74.4903 54.551 74.5175 54.551C74.5601 54.5562 74.6044 54.5601 74.6504 54.5627H74.9163C75.428 54.5627 75.7749 54.521 75.9557 54.4402C76.1365 54.3594 76.3093 54.151 76.4794 53.8174H76.6256L76.3439 54.779H73.2441L73.2508 54.6839Z" fill="#2D2D2D"/>
<path d="M77.3237 53.5882C77.6536 53.4109 77.9993 53.2635 78.3565 53.1478V52.9172C78.3663 52.7845 78.3473 52.6512 78.3006 52.5263C78.2368 52.4051 78.1039 52.3452 77.9019 52.3452C77.8064 52.3451 77.7125 52.3694 77.6294 52.4155C77.5901 52.4328 77.5566 52.4607 77.5331 52.4961C77.5095 52.5314 77.4968 52.5727 77.4965 52.6149C77.498 52.6521 77.5024 52.6891 77.5097 52.7256C77.5167 52.7579 77.5216 52.7905 77.5244 52.8234C77.5288 52.8648 77.5213 52.9067 77.5027 52.9442C77.4842 52.9817 77.4553 53.0134 77.4194 53.0358C77.379 53.0587 77.3331 53.0709 77.2864 53.0709C77.2499 53.0731 77.2134 53.0669 77.1797 53.0529C77.1461 53.0389 77.1162 53.0174 77.0924 52.9901C77.0487 52.941 77.0246 52.8781 77.0246 52.8129C77.0348 52.7347 77.0617 52.6594 77.1036 52.592C77.1455 52.5247 77.2015 52.4667 77.2679 52.422C77.4722 52.2712 77.7251 52.1977 77.9803 52.2149C78.3445 52.2149 78.5913 52.3287 78.7207 52.5562C78.7995 52.7265 78.8351 52.9129 78.8243 53.0996V54.1863C78.8207 54.2591 78.8283 54.3321 78.8469 54.4026C78.8558 54.4347 78.8758 54.4628 78.9034 54.482C78.931 54.5013 78.9647 54.5105 78.9985 54.5082C79.0354 54.5095 79.0721 54.5028 79.1061 54.4886C79.1574 54.4623 79.2063 54.4318 79.2523 54.3974V54.5381C79.1963 54.6046 79.131 54.663 79.0583 54.7114C78.9645 54.7766 78.8529 54.8125 78.738 54.8144C78.6851 54.8188 78.632 54.8102 78.5834 54.7892C78.5349 54.7683 78.4925 54.7357 78.4601 54.6945C78.4016 54.6106 78.3688 54.512 78.3658 54.4104C78.252 54.5077 78.1297 54.5949 78.0002 54.671C77.8543 54.7615 77.6863 54.8119 77.5137 54.817C77.3575 54.8188 77.2069 54.7597 77.0951 54.6528C77.037 54.5999 76.9912 54.5355 76.9607 54.4638C76.9302 54.3921 76.9157 54.3148 76.9183 54.2371C76.9227 54.1038 76.9624 53.9739 77.0335 53.8602C77.1046 53.7464 77.2046 53.6527 77.3237 53.5882ZM78.3565 53.2833C78.171 53.3388 77.9926 53.4149 77.8248 53.5101C77.5589 53.6708 77.4238 53.8532 77.4194 54.0573C77.4138 54.1268 77.4264 54.1965 77.456 54.2599C77.4855 54.3232 77.531 54.3782 77.5882 54.4196C77.6593 54.4701 77.745 54.497 77.8328 54.4964C77.9586 54.4955 78.0818 54.4608 78.189 54.3961C78.239 54.3722 78.2814 54.3352 78.3114 54.2892C78.3414 54.2433 78.3579 54.1901 78.3591 54.1355L78.3565 53.2833Z" fill="#2D2D2D"/>
<path d="M79.2812 51.3417V51.2505C79.4767 51.2082 79.6698 51.1556 79.8595 51.0928C79.9501 51.0596 80.0423 51.0309 80.1359 51.0068C80.1401 51.0172 80.1424 51.0282 80.1426 51.0394V52.6877C80.1985 52.5927 80.2725 52.5091 80.3606 52.4415C80.5289 52.3078 80.7395 52.2359 80.9561 52.2382C81.092 52.2382 81.2261 52.2685 81.3484 52.3268C81.4706 52.385 81.5778 52.4696 81.6619 52.5744C81.8635 52.8208 81.9669 53.1305 81.953 53.4461C81.9604 53.8096 81.8247 54.1619 81.5741 54.4299C81.4477 54.5649 81.2928 54.6713 81.1202 54.7418C80.9476 54.8122 80.7614 54.8449 80.5746 54.8377C80.3644 54.8374 80.1563 54.7972 79.9618 54.7191C79.7611 54.6397 79.6614 54.5602 79.6614 54.4807V51.614C79.6671 51.5371 79.6515 51.4601 79.6162 51.3912C79.5856 51.3469 79.5165 51.3248 79.4075 51.3248L79.2812 51.3417ZM80.3526 54.5901C80.4617 54.6274 80.576 54.6481 80.6915 54.6514C80.8053 54.6584 80.9189 54.6358 81.0209 54.5859C81.1229 54.536 81.2097 54.4606 81.2724 54.3673C81.4031 54.1617 81.4688 53.9228 81.4612 53.6806C81.4638 53.4219 81.4031 53.1664 81.2844 52.9353C81.235 52.8287 81.1542 52.739 81.0523 52.6779C80.9504 52.6168 80.8321 52.5871 80.7128 52.5926C80.5741 52.5951 80.439 52.6362 80.3234 52.7112C80.2673 52.7397 80.2201 52.7824 80.1866 52.8349C80.1532 52.8874 80.1348 52.9477 80.1333 53.0096V54.3895C80.1506 54.4833 80.2237 54.5498 80.3526 54.5901Z" fill="#2D2D2D"/>
<path d="M82.645 52.6185C82.7616 52.4958 82.9036 52.399 83.0616 52.3347C83.2196 52.2704 83.3898 52.2401 83.5608 52.2458C83.7308 52.2408 83.9002 52.2695 84.0587 52.3302C84.2172 52.3909 84.3616 52.4823 84.4833 52.5989C84.6066 52.7221 84.7027 52.8688 84.7655 53.03C84.8284 53.1912 84.8568 53.3634 84.8488 53.5358C84.8542 53.8806 84.7275 54.2149 84.4939 54.4727C84.381 54.6019 84.2401 54.7047 84.0813 54.7735C83.9226 54.8423 83.7502 54.8753 83.5767 54.8701C83.4057 54.8732 83.2358 54.8408 83.0784 54.775C82.9211 54.7092 82.7797 54.6115 82.6636 54.4883C82.5393 54.3611 82.4421 54.2109 82.3778 54.0464C82.3134 53.882 82.2832 53.7066 82.2887 53.5306C82.2802 53.1924 82.4082 52.8646 82.645 52.6185ZM83.0942 52.5494C82.9055 52.7136 82.8124 52.9976 82.8124 53.4003C82.8107 53.7137 82.8883 54.0226 83.0384 54.2994C83.1899 54.5765 83.3999 54.7154 83.6684 54.7163C83.768 54.7192 83.8665 54.6946 83.9525 54.6453C84.0385 54.596 84.1087 54.524 84.1549 54.4375C84.2775 54.2132 84.3362 53.9607 84.3251 53.7065C84.3266 53.3992 84.2523 53.0961 84.1084 52.823C84.0558 52.7012 83.9674 52.5973 83.8546 52.5247C83.7417 52.4521 83.6094 52.414 83.4744 52.4152C83.3356 52.4112 83.2002 52.4576 83.0942 52.5455V52.5494Z" fill="#2D2D2D"/>
<path d="M85.0479 54.697C85.1681 54.6978 85.2863 54.6677 85.3908 54.6097C85.4246 54.5711 85.4497 54.526 85.4643 54.4772C85.479 54.4285 85.4829 54.3773 85.4759 54.3269V53.1047C85.4831 52.9748 85.4651 52.8448 85.4227 52.7216C85.4079 52.6853 85.3815 52.6545 85.3476 52.6339C85.3136 52.6133 85.2738 52.6038 85.234 52.6069C85.2092 52.6054 85.1844 52.6054 85.1596 52.6069C85.1277 52.6069 85.0958 52.6173 85.0625 52.6252V52.5457L85.3895 52.4349C85.5025 52.3971 85.5796 52.3698 85.6221 52.3528C85.7165 52.319 85.8122 52.2799 85.9119 52.2369C85.9168 52.2366 85.9216 52.2376 85.9258 52.2399C85.9301 52.2422 85.9335 52.2457 85.9358 52.2499C85.938 52.2689 85.938 52.2882 85.9358 52.3072V52.7516C86.0357 52.6125 86.1526 52.486 86.2841 52.375C86.3809 52.2927 86.5042 52.2465 86.6323 52.2447C86.675 52.2428 86.7176 52.2492 86.7578 52.2635C86.7979 52.2778 86.8348 52.2998 86.8663 52.3281C86.8956 52.3543 86.9188 52.3863 86.9344 52.4221C86.9499 52.4578 86.9575 52.4964 86.9567 52.5353C86.9581 52.6036 86.9334 52.6701 86.8875 52.7216C86.8662 52.7459 86.8397 52.7653 86.8098 52.7783C86.7799 52.7914 86.7474 52.7978 86.7147 52.7972C86.6332 52.7934 86.5563 52.7594 86.4994 52.702C86.4547 52.6534 86.3949 52.6204 86.3293 52.6082C86.2641 52.6082 86.1831 52.6591 86.0873 52.7607C85.9999 52.8438 85.9485 52.9567 85.9438 53.076V54.2983C85.9365 54.357 85.9428 54.4166 85.9624 54.4726C85.982 54.5285 86.0142 54.5794 86.0568 54.6214C86.1677 54.6908 86.2996 54.7208 86.4303 54.7061V54.796H85.0439L85.0479 54.697Z" fill="#2D2D2D"/>
<path d="M87.5588 53.5883C87.8887 53.411 88.2344 53.2636 88.5916 53.1479V52.9173C88.6015 52.7846 88.5825 52.6513 88.5358 52.5264C88.472 52.4052 88.3391 52.3452 88.1371 52.3452C88.0416 52.3452 87.9477 52.3695 87.8646 52.4156C87.8252 52.4328 87.7918 52.4608 87.7682 52.4961C87.7447 52.5315 87.732 52.5727 87.7316 52.615C87.7331 52.6522 87.7376 52.6892 87.7449 52.7257C87.7518 52.758 87.7567 52.7906 87.7595 52.8234C87.7638 52.8648 87.7563 52.9064 87.738 52.9439C87.7198 52.9813 87.6913 53.0131 87.6559 53.0358C87.6132 53.0602 87.5644 53.0724 87.515 53.071C87.4784 53.0732 87.4419 53.067 87.4083 53.053C87.3746 53.039 87.3447 53.0175 87.3209 52.9902C87.2772 52.9411 87.2531 52.8782 87.2531 52.813C87.2633 52.7347 87.2902 52.6595 87.3322 52.5921C87.3741 52.5247 87.43 52.4668 87.4964 52.4221C87.7011 52.271 87.9545 52.1974 88.2101 52.2149C88.573 52.2149 88.8202 52.3283 88.9492 52.5563C89.028 52.7266 89.0636 52.913 89.0529 53.0997V54.1864C89.0492 54.2592 89.0568 54.3321 89.0754 54.4027C89.0848 54.4348 89.1051 54.4627 89.1329 54.4819C89.1607 54.5011 89.1944 54.5104 89.2283 54.5083C89.2648 54.5095 89.3011 54.5028 89.3347 54.4887C89.386 54.4624 89.4348 54.4319 89.4809 54.3975V54.5382C89.4249 54.6047 89.3595 54.663 89.2868 54.7115C89.1931 54.7768 89.0814 54.8127 88.9665 54.8145C88.9136 54.8189 88.8605 54.8103 88.8119 54.7893C88.7634 54.7684 88.721 54.7358 88.6887 54.6946C88.6301 54.6107 88.5973 54.5121 88.5943 54.4105C88.4808 54.5081 88.3584 54.5953 88.2288 54.6711C88.0828 54.7616 87.9148 54.812 87.7423 54.8171C87.5861 54.8188 87.4355 54.7598 87.3236 54.6529C87.2655 54.6 87.2197 54.5356 87.1892 54.4639C87.1587 54.3922 87.1442 54.3149 87.1468 54.2372C87.1519 54.1033 87.1926 53.9729 87.2649 53.8591C87.3372 53.7453 87.4385 53.652 87.5588 53.5883ZM88.5916 53.2834C88.4062 53.3389 88.2278 53.415 88.06 53.5101C87.7941 53.6708 87.659 53.8533 87.6545 54.0574C87.6493 54.1268 87.662 54.1965 87.6915 54.2598C87.721 54.3231 87.7663 54.3781 87.8233 54.4196C87.8946 54.4699 87.9802 54.4968 88.0679 54.4965C88.1938 54.4958 88.3171 54.4611 88.4242 54.3962C88.4742 54.3723 88.5165 54.3353 88.5466 54.2893C88.5766 54.2433 88.5931 54.1902 88.5943 54.1356L88.5916 53.2834Z" fill="#2D2D2D"/>
<path d="M90.9631 52.285V52.4792H90.3862V54.0428C90.3822 54.1482 90.3943 54.2536 90.4221 54.3555C90.4389 54.4112 90.4742 54.4597 90.5224 54.4935C90.5705 54.5272 90.6288 54.5442 90.688 54.5419C90.7501 54.5431 90.8113 54.5273 90.8648 54.4962C90.9274 54.4542 90.9845 54.4047 91.0349 54.349L91.108 54.4089L91.0455 54.4897C90.9653 54.6018 90.8591 54.6938 90.7358 54.7582C90.6383 54.8076 90.5305 54.8344 90.4208 54.8363C90.3245 54.8437 90.2284 54.8199 90.1473 54.7686C90.0661 54.7173 90.0044 54.6413 89.9715 54.5523C89.9222 54.4152 89.9001 54.2701 89.9064 54.1249V52.4831H89.5993C89.5917 52.4792 89.5849 52.4739 89.5794 52.4674C89.5739 52.4614 89.5711 52.4534 89.5714 52.4453C89.5704 52.4302 89.5751 52.4154 89.5847 52.4036C89.6095 52.3787 89.6362 52.3556 89.6645 52.3345C89.7643 52.2583 89.8581 52.1746 89.9449 52.0844C90.0016 52.0201 90.1346 51.8507 90.3437 51.5762C90.3689 51.5762 90.3836 51.5762 90.3876 51.5762C90.3915 51.5762 90.3876 51.5944 90.3876 51.6166V52.285H90.9631Z" fill="#2D2D2D"/>
<path d="M91.5997 52.6185C91.7163 52.4958 91.8584 52.399 92.0164 52.3347C92.1744 52.2704 92.3446 52.2401 92.5156 52.2458C92.6857 52.2408 92.855 52.2694 93.0135 52.3301C93.1721 52.3908 93.3164 52.4822 93.438 52.5989C93.5613 52.7221 93.6574 52.8688 93.7203 53.03C93.7832 53.1912 93.8116 53.3634 93.8036 53.5358C93.809 53.8806 93.6823 54.2149 93.4487 54.4727C93.3362 54.602 93.1955 54.7049 93.037 54.7737C92.8785 54.8425 92.7061 54.8755 92.5328 54.8701C92.3616 54.8731 92.1916 54.8406 92.0341 54.7748C91.8765 54.709 91.7348 54.6114 91.6184 54.4883C91.4943 54.361 91.3973 54.2108 91.3332 54.0463C91.2691 53.8819 91.239 53.7065 91.2449 53.5306C91.2364 53.1926 91.3639 52.865 91.5997 52.6185ZM92.049 52.5494C91.8612 52.7136 91.7672 52.9972 91.7672 53.4003C91.7653 53.7139 91.8435 54.0229 91.9945 54.2994C92.1461 54.5769 92.3548 54.7163 92.6246 54.7163C92.724 54.7189 92.8221 54.6942 92.9078 54.6449C92.9936 54.5956 93.0635 54.5238 93.1097 54.4375C93.2329 54.2134 93.2917 53.9607 93.2799 53.7065C93.2814 53.3992 93.207 53.0961 93.0632 52.823C93.0121 52.7007 92.925 52.5959 92.8131 52.5222C92.7012 52.4484 92.5694 52.4089 92.4345 52.4087C92.2931 52.4055 92.1556 52.4543 92.049 52.5455V52.5494Z" fill="#2D2D2D"/>
<path d="M94.0029 54.6969C94.1231 54.6978 94.2413 54.6677 94.3459 54.6096C94.3799 54.5712 94.4052 54.5261 94.4198 54.4773C94.4345 54.4285 94.4383 54.3772 94.4309 54.3269V53.1046C94.4384 52.9749 94.4208 52.8449 94.3791 52.7215C94.3638 52.6852 94.3372 52.6546 94.303 52.634C94.2689 52.6134 94.229 52.6039 94.189 52.6069C94.1642 52.6054 94.1394 52.6054 94.1146 52.6069C94.084 52.6069 94.0508 52.6173 94.0176 52.6251V52.5456L94.3459 52.4349C94.4575 52.3971 94.5346 52.3697 94.5785 52.3528C94.6715 52.3189 94.7672 52.2798 94.8669 52.2368C94.8802 52.2368 94.8882 52.2368 94.8908 52.2498C94.893 52.2689 94.893 52.2881 94.8908 52.3072V52.7515C94.9911 52.6127 95.108 52.4863 95.2391 52.3749C95.336 52.2928 95.4593 52.2467 95.5873 52.2446C95.63 52.2427 95.6726 52.2491 95.7128 52.2635C95.7529 52.2778 95.7898 52.2997 95.8213 52.328C95.8744 52.3786 95.9061 52.4469 95.9101 52.5194C95.914 52.5919 95.8899 52.6631 95.8426 52.7189C95.8213 52.7434 95.7948 52.7629 95.7649 52.7759C95.735 52.789 95.7025 52.7954 95.6698 52.7945C95.5883 52.7905 95.5114 52.7565 95.4544 52.6994C95.4097 52.6507 95.3499 52.6178 95.2843 52.6056C95.2192 52.6056 95.1381 52.6564 95.0424 52.758C94.9589 52.8405 94.91 52.9507 94.9055 53.0668V54.2891C94.8989 54.3478 94.9056 54.4072 94.9251 54.463C94.9447 54.5189 94.9765 54.5698 95.0185 54.6122C95.1293 54.6817 95.2612 54.7116 95.3919 54.6969V54.7868H94.0056L94.0029 54.6969Z" fill="#2D2D2D"/>
<path d="M95.9756 52.2983H97.1652V52.3739C97.0949 52.3732 97.0247 52.3816 96.9565 52.3987C96.8701 52.4234 96.8236 52.4703 96.8236 52.5407C96.8235 52.5673 96.828 52.5938 96.8369 52.6189C96.8462 52.6462 96.8635 52.6866 96.8874 52.7401L97.5387 54.0952L98.0704 52.7283C98.0817 52.696 98.0906 52.6629 98.097 52.6293C98.107 52.5949 98.1132 52.5595 98.1156 52.5238C98.1172 52.5034 98.1133 52.483 98.1045 52.4645C98.0956 52.446 98.0821 52.4301 98.0651 52.4182C98.0251 52.3939 97.9792 52.3804 97.9322 52.3791H97.8445V52.3036H98.6273V52.3791C98.5619 52.3834 98.5003 52.4112 98.4545 52.4573C98.4101 52.5106 98.3763 52.5716 98.3548 52.6371L97.4683 54.8914C97.3625 55.1926 97.214 55.4777 97.027 55.7383C96.9658 55.82 96.8857 55.8862 96.7932 55.9316C96.7008 55.9769 96.5987 56 96.4953 55.9989C96.3919 55.9996 96.2901 55.9735 96.2002 55.9233C96.1574 55.8992 96.1223 55.8639 96.0988 55.8213C96.0754 55.7788 96.0644 55.7306 96.0673 55.6823C96.0663 55.6486 96.0733 55.615 96.0876 55.5843C96.1019 55.5536 96.1231 55.5265 96.1497 55.5051C96.2072 55.4576 96.2807 55.433 96.3557 55.436C96.4298 55.4415 96.5025 55.4587 96.5711 55.4868C96.6361 55.5146 96.7052 55.5322 96.7758 55.539C96.8794 55.539 96.9884 55.4165 97.1041 55.1715C97.1876 55.0196 97.2455 54.8555 97.2756 54.6855C97.275 54.6657 97.2723 54.6461 97.2676 54.6268C97.2627 54.6056 97.2565 54.5847 97.2489 54.5643L96.3624 52.7192C96.3225 52.6234 96.2658 52.5352 96.1949 52.4586C96.1346 52.4107 96.061 52.3816 95.9836 52.3752L95.9756 52.2983Z" fill="#2D2D2D"/>
</g>
<defs>
<clipPath id="clip0_62_819">
<rect width="98.6269" height="56" fill="white"/>
</clipPath>
</defs>
</svg>
